<svg width="126" height="126" viewBox="0 0 126 126" fill="none" xmlns="http://www.w3.org/2000/svg">
<path d="M111.234 9.84375H105.328V0H95.4844V9.84375H30.5156V0H20.6719V9.84375H14.7656C6.62386 9.84375 0 16.4676 0 24.6094V111.234C0 119.376 6.62386 126 14.7656 126H111.234C119.376 126 126 119.376 126 111.234V24.6094C126 16.4676 119.376 9.84375 111.234 9.84375ZM116.156 111.234C116.156 113.948 113.948 116.156 111.234 116.156H14.7656C12.0517 116.156 9.84375 113.948 9.84375 111.234V46.2656H116.156V111.234ZM116.156 36.4219H9.84375V24.6094C9.84375 21.8955 12.0517 19.6875 14.7656 19.6875H20.6719V29.5312H30.5156V19.6875H95.4844V29.5312H105.328V19.6875H111.234C113.948 19.6875 116.156 21.8955 116.156 24.6094V36.4219Z" fill="#384996"/>
<path d="M28.5469 56.6016H18.7031V66.4453H28.5469V56.6016Z" fill="#79CDE1"/>
<path d="M48.2344 56.6016H38.3906V66.4453H48.2344V56.6016Z" fill="#79CDE1"/>
<path d="M67.9219 56.6016H58.0781V66.4453H67.9219V56.6016Z" fill="#79CDE1"/>
<path d="M87.6094 56.6016H77.7656V66.4453H87.6094V56.6016Z" fill="#79CDE1"/>
<path d="M107.297 56.6016H97.4531V66.4453H107.297V56.6016Z" fill="#79CDE1"/>
<path d="M28.5469 76.2891H18.7031V86.1328H28.5469V76.2891Z" fill="#79CDE1"/>
<path d="M48.2344 76.2891H38.3906V86.1328H48.2344V76.2891Z" fill="#79CDE1"/>
<path d="M67.9219 76.2891H58.0781V86.1328H67.9219V76.2891Z" fill="#79CDE1"/>
<path d="M87.6094 76.2891H77.7656V86.1328H87.6094V76.2891Z" fill="#79CDE1"/>
<path d="M28.5469 95.9766H18.7031V105.82H28.5469V95.9766Z" fill="#79CDE1"/>
<path d="M48.2344 95.9766H38.3906V105.82H48.2344V95.9766Z" fill="#79CDE1"/>
<path d="M67.9219 95.9766H58.0781V105.82H67.9219V95.9766Z" fill="#79CDE1"/>
<path d="M87.6094 95.9766H77.7656V105.82H87.6094V95.9766Z" fill="#79CDE1"/>
<path d="M107.297 76.2891H97.4531V86.1328H107.297V76.2891Z" fill="#79CDE1"/>
</svg>
