<svg width="126" height="126" viewBox="0 0 126 126" fill="none" xmlns="http://www.w3.org/2000/svg">
<g clip-path="url(#clip0)">
<path d="M72.7491 100.825H62.6046C60.67 100.825 59.1074 102.387 59.1074 104.322C59.1074 106.257 60.67 107.819 62.6046 107.819H72.7491C74.6837 107.819 76.2463 106.257 76.2463 104.322C76.2463 102.387 74.6837 100.825 72.7491 100.825Z" fill="#79CDE1"/>
<path d="M122.876 36.1134L89.8881 3.1252C85.7212 -1.04173 78.9499 -1.04173 74.783 3.1252L19.9184 58.0394H10.6668C4.7885 58.0394 0.00149536 62.8264 0.00149536 68.7047V115.335C0.00149536 121.213 4.7885 126 10.6668 126H86.1676C92.046 126 96.833 121.213 96.833 115.335V77.237L122.851 51.2185C127.043 47.0516 127.043 40.2803 122.876 36.1134ZM79.7436 8.08583C81.1822 6.64724 83.5137 6.64724 84.9523 8.08583L90.657 13.7906L46.433 58.0394H29.7901L79.7436 8.08583ZM6.99598 68.7047C6.99598 66.6709 8.63299 65.0339 10.6668 65.0339H86.1676C88.2015 65.0339 89.8385 66.6709 89.8385 68.7047V76.7906H6.99598V68.7047ZM89.8633 115.359C89.8633 117.393 88.2263 119.03 86.1924 119.03H10.6668C8.63299 119.03 6.99598 117.393 6.99598 115.359V83.785H89.8633V115.359ZM117.94 46.2827L96.7834 67.4398C96.1385 62.1567 91.6491 58.0394 86.1924 58.0394H56.3542L95.6176 18.7512L117.94 41.074C119.354 42.5126 119.354 44.8441 117.94 46.2827Z" fill="#384996"/>
</g>
<defs>
<clipPath id="clip0">
<rect width="126" height="126" fill="white"/>
</clipPath>
</defs>
</svg>
