<svg width="54" height="61" viewBox="0 0 54 61" fill="none" xmlns="http://www.w3.org/2000/svg">
<g filter="url(#filter0_d)">
<path d="M33.819 26.552C33.5968 26.2539 33.381 25.9622 33.1719 25.677C32.9823 25.8391 32.8385 26.0465 32.747 26.2863L32.5574 26.8048C32.5508 26.8243 32.5312 26.8372 32.5116 26.8372C32.492 26.8372 32.4724 26.8243 32.4659 26.8048L32.2763 26.2863C32.1194 25.865 31.786 25.5344 31.3676 25.3853L30.8447 25.1974C30.825 25.1909 30.812 25.1714 30.812 25.152C30.812 25.1326 30.825 25.1131 30.8447 25.1066L31.3676 24.9187C31.7141 24.789 32.0017 24.5427 32.1782 24.2251C28.877 19.1954 28.3932 16 28.3932 16C28.3932 16 27.7526 20.2066 22.9674 26.552C19.7381 30.8364 17.7378 36.0605 20.5618 40.5847C20.7383 40.8699 20.9279 41.1421 21.1305 41.4013C20.771 41.2782 20.4245 41.1291 20.0911 40.9606L19.9015 40.8634L19.8035 40.818L19.712 40.7662L19.3524 40.5523L19.0125 40.306C18.9864 40.2865 18.9537 40.2671 18.9275 40.2411L18.8491 40.1763L18.6922 40.0402C18.2803 39.6772 17.9339 39.2495 17.6789 38.7633C17.424 38.2772 17.2736 37.7393 17.2148 37.1818C17.1625 36.6244 17.1952 36.0411 17.2932 35.4707C17.5024 34.3235 17.9339 33.2021 18.5222 32.1521C18.1365 32.6188 17.8097 33.1308 17.522 33.6688C17.2409 34.2068 16.9925 34.7707 16.8226 35.367C16.6526 35.9633 16.548 36.5855 16.5545 37.2207C16.5545 37.8559 16.6853 38.5041 16.9402 39.1069C17.1952 39.7097 17.5809 40.2541 18.0385 40.7143L18.215 40.8828L18.3065 40.9671C18.3392 40.993 18.3719 41.0189 18.398 41.0449L18.7772 41.3495L19.1759 41.6217L19.274 41.6865L19.3786 41.7449L19.5878 41.8615C20.1434 42.1791 20.7318 42.4319 21.3397 42.6264C21.9477 42.8208 22.5818 42.9504 23.2224 43.0153C24.4971 43.1449 25.798 43.0217 27.027 42.6523C27.1773 42.6069 27.3342 42.5616 27.4846 42.5032C27.6349 42.4514 27.7918 42.3995 27.9291 42.3412C28.2167 42.2245 28.5044 42.1014 28.7855 41.9717C29.3477 41.706 29.8968 41.4143 30.4263 41.0902C30.9558 40.7726 31.4657 40.4226 31.956 40.0402C32.4462 39.6643 32.9104 39.2624 33.3549 38.8411L33.6818 38.5235C33.7929 38.4198 33.8909 38.3031 34.0021 38.193C34.2113 37.9726 34.4139 37.7392 34.61 37.5124L34.7604 37.3374L34.9042 37.1559C34.9957 37.0328 35.0938 36.9161 35.1853 36.7929C35.2768 36.6763 35.3618 36.5466 35.4533 36.4235C35.5318 36.3068 35.6102 36.1902 35.6886 36.0735C35.6233 36.2096 35.5644 36.3198 35.486 36.4559C35.4076 36.592 35.3356 36.7281 35.2507 36.8578C35.1657 36.9874 35.0807 37.117 34.9957 37.2466C34.9107 37.3763 34.8192 37.4994 34.7277 37.6291C34.5447 37.8818 34.3551 38.1281 34.1524 38.3615C34.0544 38.4782 33.9563 38.6013 33.8517 38.718C33.7471 38.8346 33.6425 38.9448 33.5379 39.0615C33.4333 39.1782 33.3222 39.2884 33.2111 39.3921C33.1 39.5022 32.9888 39.6124 32.8712 39.7161C32.6424 39.9235 32.407 40.1374 32.1651 40.3319C31.6814 40.7337 31.1715 41.1032 30.6355 41.4402C30.0994 41.7773 29.5438 42.0884 28.9685 42.3606C28.6809 42.4967 28.3867 42.6264 28.0925 42.743L27.9814 42.7884L27.8637 42.8338L27.6284 42.918C27.4715 42.9764 27.3081 43.0217 27.1512 43.0671C25.8895 43.4366 24.5625 43.5597 23.2551 43.4301C27.38 46.2301 33.2961 45.2838 36.2182 40.5976C39.0487 36.0605 37.0484 30.8364 33.819 26.552Z" fill="url(#paint0_linear)"/>
<path d="M20.0911 40.9606L19.9015 40.8634M20.0911 40.9606C20.1476 40.9891 20.2044 41.0171 20.2616 41.0445C20.2216 40.9831 20.1822 40.9212 20.1434 40.8587L20.0911 40.9606ZM20.0911 40.9606L20.143 40.858C20.141 40.8549 20.1391 40.8518 20.1371 40.8486C20.0949 40.7809 20.0537 40.7131 20.0135 40.6451C20.0114 40.6417 20.0094 40.6382 20.0073 40.6348C19.9902 40.6058 19.9733 40.5768 19.9566 40.5478L19.8035 40.818M19.9015 40.8634L19.8961 40.4412L19.712 40.7662M19.9015 40.8634L19.8035 40.818M19.9015 40.8634L19.3524 40.5523M19.8035 40.818L19.9411 40.5207C19.9274 40.4969 19.9139 40.473 19.9005 40.4492L19.712 40.7662M19.8035 40.818L19.712 40.7662M19.712 40.7662L19.3524 40.5523M20.5618 40.5847L20.5171 40.6123C20.4503 40.5808 20.3839 40.5483 20.318 40.5151C20.3176 40.5148 20.3171 40.5146 20.3167 40.5144L20.1297 40.4185L20.1207 40.4139L20.1115 40.4096L20.0321 40.3728L19.9631 40.3338L22.9674 26.552C19.7381 30.8364 17.7378 36.0605 20.5618 40.5847ZM20.5618 40.5847L20.5173 40.6124C20.5463 40.6261 20.5753 40.6396 20.6045 40.653C20.5902 40.6303 20.5759 40.6075 20.5618 40.5847ZM19.3524 40.5523L19.0125 40.306C19.0049 40.3003 18.9967 40.2946 18.9883 40.2888C18.9678 40.2746 18.946 40.2595 18.9275 40.2411L19.3524 40.5523ZM32.5127 25.6662C32.3731 25.4641 32.1981 25.2889 31.9961 25.15C32.2506 24.9737 32.4634 24.7413 32.6153 24.468L32.7622 24.2036L32.5962 23.9508C30.9663 21.4675 30.0369 19.4445 29.5161 18.0514C29.2557 17.3547 29.0974 16.8151 29.0047 16.4537C28.9584 16.273 28.9285 16.1369 28.9105 16.0479C28.9015 16.0034 28.8955 15.9707 28.8919 15.9502L28.8881 15.9285L28.8876 15.9252L28.8876 15.9248C28.8876 15.9248 28.8876 15.9249 28.8858 15.9252L27.9009 15.9247C27.899 15.9244 27.899 15.9244 27.899 15.9243L27.899 15.9244L27.8989 15.9247L27.8981 15.9301L27.8929 15.9597C27.8879 15.9874 27.8796 16.031 27.8671 16.09C27.8422 16.208 27.8008 16.3875 27.736 16.6247C27.6065 17.0988 27.3835 17.8035 27.0123 18.7064C26.2702 20.5118 24.935 23.1125 22.5682 26.251L22.5682 26.2511C19.454 30.3827 17.327 35.5723 19.7778 40.2235L19.6275 40.1341L19.3079 39.9025C19.2953 39.8933 19.2838 39.8853 19.277 39.8805L19.2668 39.8734L19.2635 39.8701L19.246 39.8557L19.1722 39.7947L19.0228 39.6651C19.0223 39.6647 19.0218 39.6643 19.0214 39.6639C18.652 39.3381 18.3457 38.9581 18.1217 38.5311C17.9002 38.1087 17.7656 37.6341 17.7123 37.1322C17.6652 36.6268 17.6943 36.09 17.7856 35.5579C17.9836 34.4737 18.3933 33.4052 18.9584 32.3965L18.1368 31.8336C17.7252 32.3316 17.3806 32.8729 17.0811 33.4331L17.0811 33.4331L17.0789 33.4373C16.7878 33.9943 16.5239 34.5908 16.3417 35.2299C16.1619 35.861 16.0477 36.531 16.0546 37.2233C16.0549 37.9252 16.1993 38.6386 16.4797 39.3016C16.7627 39.9708 17.1873 40.5675 17.6839 41.0669L17.6838 41.067L17.6932 41.0759L17.8697 41.2445L17.8696 41.2445L17.8763 41.2507L17.9678 41.3349L17.9814 41.3474L17.9958 41.3588C18.0131 41.3725 18.0244 41.3815 18.0342 41.3898C18.0429 41.397 18.0461 41.4001 18.0461 41.4001L18.0645 41.4183L18.0848 41.4346L18.464 41.7393L18.4792 41.7515L18.4953 41.7624L18.894 42.0347L18.894 42.0347L18.9002 42.0388L18.9983 42.1036L19.014 42.114L19.0304 42.1232L19.135 42.1815L19.3396 42.2956C19.3404 42.2961 19.3412 42.2965 19.342 42.297C19.9298 42.6327 20.5497 42.8987 21.1874 43.1026C21.8059 43.3004 22.4486 43.4343 23.0971 43.5049L22.9743 43.8438C27.3252 46.7973 33.5646 45.798 36.6424 40.8623C39.6489 36.0431 37.4737 30.5704 34.2191 26.2521C33.9979 25.9553 33.7832 25.665 33.575 25.3813L33.2564 24.947L32.847 25.2969C32.7191 25.4062 32.6074 25.5303 32.5127 25.6662Z" stroke="white"/>
</g>
<defs>
<filter id="filter0_d" x="0.55426" y="0.845581" width="53.0211" height="60.1539" filterUnits="userSpaceOnUse" color-interpolation-filters="sRGB">
<feFlood flood-opacity="0" result="BackgroundImageFix"/>
<feColorMatrix in="SourceAlpha" type="matrix" values="0 0 0 0 0 0 0 0 0 0 0 0 0 0 0 0 0 0 127 0"/>
<feOffset/>
<feGaussianBlur stdDeviation="7.5"/>
<feColorMatrix type="matrix" values="0 0 0 0 0 0 0 0 0 0.627451 0 0 0 0 1 0 0 0 0.4 0"/>
<feBlend mode="normal" in2="BackgroundImageFix" result="effect1_dropShadow"/>
<feBlend mode="normal" in="SourceGraphic" in2="effect1_dropShadow" result="shape"/>
</filter>
<linearGradient id="paint0_linear" x1="26.8995" y1="25.4712" x2="27.202" y2="45.5818" gradientUnits="userSpaceOnUse">
<stop stop-color="#79CDE1"/>
<stop offset="0.0872112" stop-color="#75C5DD"/>
<stop offset="0.2168" stop-color="#6CB2D1"/>
<stop offset="0.3728" stop-color="#5E94C0"/>
<stop offset="0.5495" stop-color="#4A6CAA"/>
<stop offset="0.7433" stop-color="#333E90"/>
<stop offset="0.9486" stop-color="#190E76"/>
<stop offset="1" stop-color="#11006F"/>
</linearGradient>
</defs>
</svg>
