<svg width="62" height="78" viewBox="0 0 62 78" fill="none" xmlns="http://www.w3.org/2000/svg">
<path d="M50.7962 28.1221C50.1445 27.3275 49.5121 26.5502 48.8988 25.7901C48.343 26.2219 47.9213 26.7747 47.653 27.4139L47.0972 28.7958C47.078 28.8476 47.0205 28.8821 46.9631 28.8821C46.9056 28.8821 46.8481 28.8476 46.8289 28.7958L46.2731 27.4139C45.8131 26.291 44.8357 25.4101 43.6091 25.0128L42.0759 24.5118C42.0184 24.4945 41.98 24.4427 41.98 24.3909C41.98 24.3391 42.0184 24.2873 42.0759 24.27L43.6091 23.769C44.6249 23.4236 45.4681 22.7671 45.9856 21.9207C36.307 8.51609 34.8888 0 34.8888 0C34.8888 0 33.0106 11.2108 18.9814 28.1221C9.5137 39.5402 3.64906 53.4631 11.9286 65.5203C12.446 66.2804 13.0018 67.0059 13.5959 67.6968C12.5418 67.3686 11.5261 66.9713 10.5486 66.5222L9.99284 66.2631L9.70535 66.1422L9.43704 66.004L8.38294 65.4339L7.38633 64.7775C7.30967 64.7257 7.21384 64.6739 7.13718 64.6048L6.90719 64.4321L6.44722 64.0693C5.2398 63.102 4.22403 61.9619 3.47657 60.6663C2.72912 59.3708 2.28831 57.937 2.11582 56.4515C1.9625 54.9659 2.05833 53.4112 2.34581 51.8911C2.9591 48.8336 4.22403 45.8452 5.94892 43.0468C4.81816 44.2906 3.85988 45.6552 3.0166 47.0889C2.19249 48.5227 1.4642 50.0255 0.965894 51.6147C0.467591 53.2039 0.160944 54.8623 0.180109 56.5551C0.180109 58.248 0.563419 59.9754 1.31087 61.5818C2.05833 63.1883 3.18909 64.6393 4.53067 65.8658L5.04814 66.3149L5.31646 66.5395C5.41229 66.6086 5.50811 66.6777 5.58478 66.7468L6.69637 67.5586L7.86547 68.2842L8.15295 68.4569L8.4596 68.6124L9.07289 68.9233C10.702 69.7697 12.4269 70.4434 14.2092 70.9616C15.9916 71.4798 17.8507 71.8253 19.7289 71.9981C23.4662 72.3435 27.2801 72.0153 30.8832 71.0307C31.324 70.9098 31.784 70.7889 32.2248 70.6334C32.6656 70.4952 33.1256 70.357 33.528 70.2016C34.3713 69.8906 35.2146 69.5624 36.0387 69.217C37.687 68.5087 39.2969 67.7314 40.8493 66.8677C42.4017 66.0213 43.8966 65.0885 45.334 64.0693C46.7714 63.0674 48.1321 61.9964 49.4354 60.8736L50.3937 60.0272C50.7195 59.7508 51.007 59.4399 51.3328 59.1462C51.9461 58.5589 52.5402 57.937 53.1152 57.3324L53.556 56.866L53.9776 56.3824C54.2459 56.0542 54.5334 55.7432 54.8017 55.415C55.0701 55.1041 55.3192 54.7586 55.5875 54.4304C55.8175 54.1195 56.0475 53.8085 56.2775 53.4976C56.0858 53.8604 55.9133 54.154 55.6833 54.5168C55.4534 54.8795 55.2425 55.2423 54.9934 55.5878C54.7442 55.9332 54.4951 56.2787 54.2459 56.6242C53.9968 56.9697 53.7285 57.2979 53.4602 57.6434C52.9235 58.3171 52.3677 58.9735 51.7736 59.5953C51.4861 59.9063 51.1986 60.2345 50.892 60.5454C50.5853 60.8563 50.2787 61.15 49.972 61.4609C49.6654 61.7719 49.3396 62.0655 49.0138 62.3419C48.6879 62.6356 48.3621 62.9292 48.0172 63.2056C47.3464 63.7584 46.6564 64.3284 45.9473 64.8466C44.529 65.9176 43.0341 66.9022 41.4626 67.8005C39.891 68.6987 38.2619 69.5279 36.5754 70.2534C35.7321 70.6161 34.8696 70.9616 34.0072 71.2726L33.6814 71.3935L33.3364 71.5144L32.6464 71.739C32.1865 71.8944 31.7073 72.0153 31.2474 72.1363C27.5484 73.1209 23.6578 73.4491 19.8247 73.1036C31.9181 80.566 49.2629 78.044 57.8299 65.5549C66.1285 53.4631 60.2639 39.5402 50.7962 28.1221Z" fill="url(#paint0_linear)"/>
<path fill-rule="evenodd" clip-rule="evenodd" d="M33.3367 35.7221C26.9978 35.7221 21.8591 40.3652 21.8591 46.0927C21.8591 51.8203 26.9978 56.4634 33.3367 56.4634C39.6755 56.4634 44.8142 51.8203 44.8142 46.0927C44.8142 40.3652 39.6755 35.7221 33.3367 35.7221ZM19.3085 46.0927C19.3085 39.0924 25.5891 33.4175 33.3367 33.4175C41.0842 33.4175 47.3648 39.0924 47.3648 46.0927C47.3648 53.0931 41.0842 58.768 33.3367 58.768C25.5891 58.768 19.3085 53.0931 19.3085 46.0927Z" fill="white"/>
<path fill-rule="evenodd" clip-rule="evenodd" d="M33.6659 41.5106C33.0722 41.4186 32.4616 41.5194 31.9423 41.7952C31.423 42.0709 31.0285 42.5039 30.8286 43.0173C30.5949 43.6176 29.8668 43.9331 29.2024 43.7219C28.538 43.5107 28.1889 42.8528 28.4226 42.2525C28.8224 41.2257 29.6114 40.3598 30.65 39.8083C31.6886 39.2568 32.9097 39.0552 34.0971 39.2392C35.2844 39.4232 36.3613 39.981 37.1372 40.8137C37.9128 41.6463 38.3374 42.7 38.3358 43.7882C38.3352 45.5517 36.8883 46.7162 35.855 47.3386C35.2994 47.6733 34.753 47.9193 34.3504 48.081C34.1473 48.1626 33.9763 48.2244 33.853 48.2669C33.7913 48.2881 33.7413 48.3046 33.7049 48.3163L33.6606 48.3303L33.6465 48.3346L33.6415 48.3362L33.6395 48.3367C33.6392 48.3369 33.6379 48.3372 33.2347 47.2441L33.6379 48.3372C32.9698 48.5385 32.2475 48.2122 32.0248 47.6085C31.8022 47.0051 32.1627 46.353 32.83 46.1513L32.8284 46.1518C32.8285 46.1518 32.8287 46.1517 32.83 46.1513L32.8504 46.1449C32.87 46.1386 32.9022 46.128 32.9451 46.1133C33.0311 46.0837 33.1589 46.0375 33.3145 45.975C33.6293 45.8486 34.0393 45.6626 34.4402 45.4211C35.3196 44.8913 35.7852 44.3278 35.7852 43.7872L35.7852 43.7855C35.7861 43.2412 35.5738 42.7142 35.1859 42.2979C34.798 41.8815 34.2595 41.6026 33.6659 41.5106Z" fill="white"/>
<path fill-rule="evenodd" clip-rule="evenodd" d="M32.0614 51.8533C32.0614 51.2169 32.6324 50.701 33.3367 50.701H33.3494C34.0538 50.701 34.6247 51.2169 34.6247 51.8533C34.6247 52.4897 34.0538 53.0056 33.3494 53.0056H33.3367C32.6324 53.0056 32.0614 52.4897 32.0614 51.8533Z" fill="white"/>
<defs>
<linearGradient id="paint0_linear" x1="30.5094" y1="25.2417" x2="31.2423" y2="78.8404" gradientUnits="userSpaceOnUse">
<stop stop-color="#79CDE1"/>
<stop offset="0.0872112" stop-color="#75C5DD"/>
<stop offset="0.2168" stop-color="#6CB2D1"/>
<stop offset="0.3728" stop-color="#5E94C0"/>
<stop offset="0.5495" stop-color="#4A6CAA"/>
<stop offset="0.7433" stop-color="#333E90"/>
<stop offset="0.9486" stop-color="#190E76"/>
<stop offset="1" stop-color="#11006F"/>
</linearGradient>
</defs>
</svg>
