<svg width="126" height="126" viewBox="0 0 126 126" fill="none" xmlns="http://www.w3.org/2000/svg">
<path d="M48.3835 60.166C46.9421 58.7244 44.6047 58.7244 43.1631 60.166C41.7215 61.6076 41.7215 63.9448 43.1631 65.3864L54.6476 76.8709C55.3684 77.5917 56.3131 77.9522 57.2576 77.9522C58.2022 77.9522 59.1472 77.5919 59.8677 76.8709L82.8364 53.9022C84.278 52.4606 84.278 50.1234 82.8364 48.6818C81.395 47.2402 79.0576 47.2402 77.616 48.6818L57.2574 69.0402L48.3835 60.166Z" fill="#79CDE1"/>
<path d="M109.736 17.2266C99.0958 17.2266 89.4022 11.3804 84.4382 1.96924C83.7996 0.757969 82.5425 0 81.1733 0H44.8267C43.4574 0 42.2004 0.757969 41.5615 1.96924C36.5978 11.3804 26.9042 17.2266 16.2422 17.2266C14.2035 17.2266 12.5508 18.8793 12.5508 20.918V58.509C12.5508 73.6212 17.2726 88.0516 26.2055 100.241C35.139 112.43 47.4776 121.278 61.8884 125.828C62.2502 125.943 62.625 126 63 126C63.375 126 63.7498 125.943 64.1116 125.828C78.5224 121.278 90.861 112.43 99.7945 100.241C108.727 88.0516 113.449 73.6212 113.449 58.509V20.918C113.449 18.8793 111.774 17.2266 109.736 17.2266ZM106.066 58.509C106.066 85.8289 88.8088 109.761 63 118.426C37.1912 109.761 19.9336 85.8289 19.9336 58.509V24.4241C31.1058 23.2901 41.0972 17.0203 46.9739 7.38281H79.0264C84.8999 17.0154 94.8854 23.2837 106.066 24.4223V58.509Z" fill="#384996"/>
<path d="M76.1901 16.1211C75.489 15.2632 74.4394 14.7656 73.3315 14.7656H52.6682C51.5603 14.7656 50.511 15.2632 49.8101 16.1211C44.5905 22.5075 37.69 27.2448 29.8549 29.8204C28.3402 30.3183 27.3164 31.7326 27.3164 33.3272V58.5093C27.3164 81.1159 40.7652 101.331 61.5793 110.01C62.0341 110.2 62.5172 110.295 63 110.295C63.4828 110.295 63.9662 110.2 64.4207 110.01C85.2348 101.331 98.6836 81.1159 98.6836 58.5093V33.3297C98.6836 31.7353 97.6601 30.321 96.1454 29.8229C88.31 27.2463 81.4095 22.5085 76.1901 16.1211ZM91.3008 58.5093C91.3008 77.6071 80.2435 94.737 63 102.577C45.7565 94.7372 34.6992 77.6074 34.6992 58.5093V35.9243C42.275 32.98 49.0113 28.2673 54.3788 22.1484H71.6209C76.9887 28.2681 83.7243 32.9815 91.3008 35.9262V58.5093Z" fill="#384996"/>
</svg>
