<svg width="207" height="129" viewBox="0 0 207 129" fill="none" xmlns="http://www.w3.org/2000/svg">
<path d="M76.8202 47.4955C75.8713 46.2089 74.9504 44.9503 74.0573 43.7196C73.248 44.4188 72.634 45.3139 72.2433 46.3487L71.434 48.5863C71.4061 48.6702 71.3224 48.7262 71.2386 48.7262C71.1549 48.7262 71.0712 48.6702 71.0433 48.5863L70.234 46.3487C69.5642 44.5307 68.1409 43.1043 66.3548 42.4609L64.1222 41.6498C64.0385 41.6219 63.9827 41.5379 63.9827 41.454C63.9827 41.3701 64.0385 41.2862 64.1222 41.2582L66.3548 40.4471C67.8339 39.8877 69.0619 38.8249 69.8154 37.4544C55.722 15.7498 53.6569 1.96069 53.6569 1.96069C53.6569 1.96069 50.9219 20.1131 30.4936 47.4955C16.7073 65.9835 8.16756 88.5272 20.2236 108.05C20.9771 109.281 21.7864 110.456 22.6516 111.574C21.1167 111.043 19.6376 110.4 18.2143 109.672L17.405 109.253L16.9863 109.057L16.5956 108.833L15.0607 107.91L13.6095 106.847C13.4979 106.763 13.3584 106.68 13.2467 106.568L12.9118 106.288L12.2421 105.701C10.4839 104.134 9.00478 102.288 7.91639 100.191C6.82799 98.0929 6.18612 95.7714 5.93495 93.366C5.71169 90.9606 5.85123 88.4433 6.26984 85.9819C7.16288 81.0313 9.00478 76.1925 11.5165 71.6614C9.86992 73.6752 8.47454 75.8848 7.24661 78.2063C6.04658 80.5278 4.98609 82.9612 4.2605 85.5344C3.5349 88.1076 3.08838 90.7927 3.11629 93.5338C3.11629 96.2748 3.67444 99.0718 4.76283 101.673C5.85123 104.274 7.49777 106.624 9.4513 108.609L10.2048 109.337L10.5955 109.7C10.7351 109.812 10.8746 109.924 10.9862 110.036L12.6049 111.351L14.3072 112.525L14.7258 112.805L15.1724 113.057L16.0654 113.56C18.4375 114.931 20.9492 116.021 23.5446 116.861C26.14 117.7 28.8471 118.259 31.582 118.539C37.024 119.098 42.5776 118.567 47.8242 116.972C48.4661 116.777 49.1359 116.581 49.7777 116.329C50.4196 116.105 51.0894 115.882 51.6754 115.63C52.9034 115.126 54.1313 114.595 55.3313 114.036C57.7314 112.889 60.0756 111.63 62.3361 110.232C64.5966 108.861 66.7734 107.351 68.8665 105.701C70.9596 104.078 72.941 102.344 74.8387 100.526L76.2341 99.1557C76.7085 98.7082 77.1271 98.2047 77.6016 97.7292C78.4946 96.7783 79.3597 95.7714 80.197 94.7924L80.8388 94.0372L81.4528 93.2541C81.8435 92.7227 82.2621 92.2192 82.6528 91.6878C83.0435 91.1843 83.4063 90.6249 83.7971 90.0935C84.1319 89.59 84.4668 89.0866 84.8017 88.5831C84.5227 89.1705 84.2715 89.646 83.9366 90.2334C83.6017 90.8207 83.2947 91.4081 82.9319 91.9675C82.5691 92.5269 82.2063 93.0863 81.8435 93.6457C81.4807 94.2051 81.09 94.7365 80.6993 95.2959C79.9179 96.3867 79.1086 97.4496 78.2434 98.4565C77.8248 98.9599 77.4062 99.4913 76.9597 99.9948C76.5132 100.498 76.0667 100.974 75.6201 101.477C75.1736 101.981 74.6992 102.456 74.2248 102.904C73.7503 103.379 73.2759 103.855 72.7736 104.302C71.7968 105.197 70.7921 106.12 69.7595 106.959C67.6944 108.693 65.5176 110.288 63.2292 111.742C60.9408 113.197 58.5686 114.539 56.1128 115.714C54.8848 116.301 53.629 116.861 52.3731 117.364L51.8987 117.56L51.3964 117.756L50.3917 118.119C49.7219 118.371 49.0242 118.567 48.3544 118.763C42.9683 120.357 37.3031 120.888 31.7215 120.329C49.3312 132.412 74.5876 128.328 87.0622 108.106C99.1462 88.5272 90.6065 65.9835 76.8202 47.4955Z" fill="white"/>
<path d="M69.5642 28.7836L70.9596 29.2871C72.0759 29.7066 72.9689 30.5737 73.3876 31.7204L73.8899 33.1189C73.9178 33.1749 73.9457 33.2028 74.0015 33.2028C74.0573 33.2028 74.1132 33.1749 74.1132 33.1189L74.6155 31.7204C75.0341 30.6016 75.8992 29.7066 77.0434 29.2871L78.4388 28.7836C78.4946 28.7556 78.5226 28.7277 78.5226 28.6717C78.5226 28.6158 78.4946 28.5599 78.4388 28.5599L77.0434 28.0564C75.9271 27.6369 75.0341 26.7698 74.6155 25.623L74.1132 24.2245C74.0852 24.1686 74.0573 24.1406 74.0015 24.1406C73.9457 24.1406 73.8899 24.1686 73.8899 24.2245L73.3876 25.623C72.9689 26.7418 72.1038 27.6369 70.9596 28.0564L69.5642 28.5599C69.5084 28.5878 69.4805 28.6158 69.4805 28.6717C69.4805 28.7277 69.5084 28.7836 69.5642 28.7836Z" fill="white"/>
<path d="M84.9413 33.8742C84.9413 33.8462 84.9134 33.8462 84.8855 33.8462C84.8576 33.8462 84.8297 33.8742 84.8297 33.8742L84.5785 34.5175C84.3832 35.0489 83.9646 35.4684 83.4343 35.6642L82.7924 35.916C82.7645 35.916 82.7645 35.9439 82.7645 35.9719C82.7645 35.9999 82.7924 36.0278 82.7924 36.0278L83.4343 36.2796C83.9646 36.4753 84.3832 36.8949 84.5785 37.4263L84.8297 38.0696C84.8297 38.0976 84.8576 38.0976 84.8855 38.0976C84.9134 38.0976 84.9413 38.0696 84.9413 38.0696L85.1925 37.4263C85.3878 36.8949 85.8065 36.4753 86.3367 36.2796L86.9786 36.0278C87.0065 36.0278 87.0065 35.9999 87.0065 35.9719C87.0065 35.9439 86.9786 35.916 86.9786 35.916L86.3367 35.6642C85.8065 35.4684 85.3878 35.0489 85.1925 34.5175L84.9413 33.8742Z" fill="white"/>
<path d="M82.4575 25.0638L82.904 25.2316C83.2668 25.3715 83.5459 25.6512 83.6575 25.9868L83.825 26.4343C83.825 26.4623 83.8529 26.4623 83.8529 26.4623C83.8808 26.4623 83.8808 26.4623 83.8808 26.4343L84.0482 25.9868C84.1878 25.6232 84.4668 25.3435 84.8017 25.2316L85.2483 25.0638C85.2762 25.0638 85.2762 25.0358 85.2762 25.0358C85.2762 25.0079 85.2762 25.0079 85.2483 25.0079L84.8017 24.84C84.4389 24.7002 84.1599 24.4205 84.0482 24.0849L83.8808 23.6373C83.8808 23.6094 83.8529 23.6094 83.8529 23.6094C83.825 23.6094 83.825 23.6094 83.825 23.6373L83.6575 24.0849C83.518 24.4485 83.2389 24.7282 82.904 24.84L82.4575 25.0079C82.4296 25.0079 82.4296 25.0358 82.4296 25.0358C82.4296 25.0358 82.4575 25.0638 82.4575 25.0638Z" fill="white"/>
<path d="M59.1267 104.526C60.3826 103.883 61.6384 103.211 62.8664 102.54V80.2483L66.8292 81.7307V71.3259L59.9082 67.0186V81.3671L54.5499 83.3529V106.764C56.0848 106.064 57.6197 105.309 59.1267 104.526Z" fill="#384996"/>
<path d="M72.0479 97.086C72.8014 96.5825 73.5828 96.107 74.3363 95.6036V89.9817L71.2386 89.3384V97.6174C71.5177 97.4216 71.7688 97.2538 72.0479 97.086Z" fill="#384996"/>
<path d="M32.2518 111.826C34.9309 112.022 37.61 111.91 40.2333 111.518V64.3333L31.889 69.2839V111.798C32.0006 111.798 32.1122 111.798 32.2518 111.826Z" fill="#384996"/>
<path d="M48.5777 109.309C48.7731 109.253 48.9405 109.169 49.1359 109.085C49.9452 108.777 50.7545 108.442 51.5359 108.078V52.1106L43.1916 58.4877V66.0955L48.5498 69.284V109.309H48.5777Z" fill="#384996"/>
<path fill-rule="evenodd" clip-rule="evenodd" d="M107.295 66.6828C107.295 63.9697 109.304 61.844 112.681 61.844C113.826 61.844 114.886 62.2356 115.723 62.9908C115.791 63.0453 115.852 63.1048 115.906 63.1683C116.025 63.305 116.111 63.464 116.159 63.6397C116.314 64.1748 116.12 64.7903 115.584 65.1165C115.36 65.2563 115.137 65.3122 114.886 65.3122C114.607 65.3122 114.328 65.2283 114.105 65.0325C113.714 64.6689 113.212 64.5011 112.681 64.5011C110.951 64.5011 109.918 65.4521 109.918 66.7107C109.918 68.2491 111.9 68.9763 113.574 69.5077C116.588 70.5146 118.905 72.1648 118.905 75.2415C118.905 78.5699 116.393 81.1432 113.156 81.1432C111.118 81.1432 109.416 80.5558 108.188 79.465C107.518 78.8776 107.63 77.8147 108.356 77.3672H108.384C108.607 77.2274 108.83 77.1714 109.081 77.1714C109.388 77.1714 109.695 77.2554 109.918 77.4791C110.672 78.1504 111.76 78.514 113.128 78.514C114.914 78.514 116.281 77.0875 116.281 75.2415C116.281 73.5913 114.858 72.6403 112.765 71.997L112.627 71.9524C109.991 71.1004 107.295 70.229 107.295 66.6828ZM121.054 69.2838C121.054 68.5846 121.612 68.0252 122.309 68.0252C123.007 68.0252 123.565 68.5846 123.565 69.2559V70.4586C124.654 68.9762 126.551 68.0532 128.421 68.0532C131.714 68.0532 134.393 70.9341 134.393 74.4862C134.393 78.0104 131.714 80.8913 128.421 80.8913C126.551 80.8913 124.654 79.9403 123.565 78.4859V84.863C123.565 85.5623 123.007 86.1216 122.309 86.1216C121.612 86.1216 121.054 85.5623 121.054 84.863V69.2838ZM127.975 78.402H127.975C130.375 78.402 132.245 76.2763 131.826 73.787C131.547 72.1647 130.263 70.8781 128.644 70.5984C128.421 70.5705 128.198 70.5425 127.975 70.5425C125.714 70.5425 123.9 72.5004 124.096 74.8219C124.263 76.6958 125.77 78.2062 127.64 78.374C127.751 78.402 127.863 78.402 127.975 78.402ZM146.924 69.2838C146.924 68.5846 147.482 68.0252 148.18 68.0252C148.877 68.0252 149.463 68.5846 149.436 69.3118V79.6606C149.436 80.3599 148.877 80.9193 148.18 80.9193C147.482 80.9193 146.924 80.3599 146.924 79.6606V78.5139C145.835 79.9963 143.938 80.9193 142.068 80.9193C138.775 80.9193 136.096 78.0384 136.096 74.4862C136.096 70.962 138.775 68.0811 142.068 68.0811C143.938 68.0811 145.835 69.0321 146.924 70.4865V69.2838ZM138.607 74.5142C138.607 76.6679 140.338 78.43 142.514 78.43C144.663 78.43 146.422 76.6679 146.422 74.5142C146.422 72.3605 144.663 70.5984 142.514 70.5984C140.366 70.5984 138.607 72.3605 138.607 74.5142ZM153.398 70.0391C154.626 68.7805 156.273 68.1651 157.919 68.1651C159.092 68.1651 160.264 68.4728 161.296 69.1161C161.938 69.5356 162.022 70.4307 161.492 70.9621C161.268 71.1859 160.961 71.2977 160.654 71.2977C160.431 71.2977 160.18 71.2418 159.985 71.102C159.371 70.7383 158.673 70.5426 157.947 70.5426C156.943 70.5426 155.91 70.9341 155.157 71.7173C154.375 72.5004 153.985 73.5074 153.985 74.5143C153.985 75.5491 154.375 76.5561 155.157 77.3672H155.129C155.882 78.1503 156.887 78.514 157.919 78.514C158.645 78.514 159.371 78.3182 160.013 77.9266C160.208 77.8147 160.403 77.7588 160.627 77.7588C160.933 77.7588 161.24 77.8706 161.464 78.0944C161.994 78.6258 161.91 79.5488 161.268 79.9404C160.236 80.5837 159.064 80.8914 157.919 80.8914C156.273 80.8914 154.654 80.304 153.398 79.0454C152.198 77.7867 151.557 76.1645 151.557 74.5143C151.557 72.92 152.171 71.2977 153.426 70.0391H153.398ZM165.985 69.8992C167.213 68.6965 168.831 68.0532 170.506 68.0532C171.734 68.0532 173.157 68.6126 174.58 69.6195C175.334 70.1789 175.418 71.2697 174.748 71.941L168.776 77.9266C169.306 78.1783 169.892 78.3181 170.506 78.3181C171.203 78.3181 171.901 78.1223 172.515 77.7587C172.71 77.6189 172.934 77.5629 173.157 77.5629C173.464 77.5629 173.771 77.6748 174.022 77.9266C174.608 78.5139 174.469 79.4929 173.771 79.9124C172.766 80.5278 171.622 80.8074 170.506 80.8074C168.859 80.8074 167.241 80.2201 165.985 78.9614C164.757 77.7308 164.143 76.0806 164.143 74.4303C164.143 72.8081 164.729 71.1579 165.985 69.8992ZM166.599 74.4583C166.599 75.0736 166.71 75.661 166.989 76.1924L172.264 70.9341C171.762 70.6824 171.064 70.5425 170.506 70.5425C169.473 70.5425 168.469 70.9341 167.743 71.6893C166.962 72.4724 166.599 73.4794 166.599 74.4583Z" fill="white"/>
<path fill-rule="evenodd" clip-rule="evenodd" d="M109.722 89.9241C113.169 86.4692 118.595 86.1248 122.443 88.8872C123.253 89.4628 123.354 90.6162 122.646 91.3256L122.643 91.3286L122.64 91.3315C122.063 91.8756 121.191 91.9025 120.561 91.4705L120.559 91.4685L120.556 91.4664C117.851 89.5071 113.993 89.8563 111.69 92.4602L111.689 92.4614C109.362 95.0613 109.52 99.1444 111.985 101.615C114.315 103.95 117.957 104.192 120.555 102.315C121.193 101.844 122.072 101.908 122.618 102.455C123.332 103.17 123.189 104.32 122.419 104.89L122.417 104.891L122.416 104.893C118.568 107.656 113.197 107.311 109.75 103.856C105.901 99.9993 105.901 93.7817 109.721 89.9248L109.722 89.9241ZM126.831 87.2132C125.979 87.2132 125.296 87.8975 125.296 88.7509V104.945C125.296 105.799 125.979 106.483 126.831 106.483C127.682 106.483 128.365 105.799 128.365 104.945V88.7509C128.365 87.8975 127.682 87.2132 126.831 87.2132ZM174.022 88.304C172.997 88.304 172.181 89.1626 172.181 90.1774C172.181 91.1985 173.003 92.0227 174.022 92.0227C175.035 92.0227 175.891 91.2049 175.891 90.1774C175.891 89.1562 175.041 88.304 174.022 88.304ZM155.771 93.1148C154.919 93.1148 154.236 93.7992 154.236 94.6525V95.0773C153.066 93.8866 151.353 93.1428 149.659 93.1428C146.194 93.1428 143.408 96.1669 143.408 99.8269C143.408 103.514 146.194 106.539 149.659 106.539C151.351 106.539 153.065 105.818 154.236 104.613V105.001C154.236 105.851 154.917 106.542 155.776 106.511C156.625 106.508 157.305 105.825 157.305 104.973V94.6525C157.305 93.7992 156.622 93.1148 155.771 93.1148ZM160.599 93.1148C159.887 93.1148 159.315 93.6873 159.315 94.4008V104.973C159.315 105.827 159.998 106.511 160.85 106.511C161.701 106.511 162.384 105.827 162.384 104.973V98.9319C162.384 97.2532 164.093 95.9511 165.847 96.4856C166.977 96.8384 167.744 97.9539 167.744 99.1557V105.001C167.744 105.855 168.457 106.546 169.317 106.483C170.163 106.477 170.84 105.795 170.84 104.945V99.0438C170.84 95.841 168.259 93.2547 165.064 93.2547C164.071 93.2547 163.119 93.4989 162.305 93.9525C162.124 93.462 161.655 93.1148 161.101 93.1148H160.599ZM179.157 93.1148C178.445 93.1148 177.874 93.6873 177.874 94.4008V104.973C177.874 105.827 178.557 106.511 179.408 106.511C180.26 106.511 180.943 105.827 180.943 104.973V98.9319C180.943 97.2031 182.806 95.8498 184.609 96.5623L184.609 96.5627C185.636 96.9642 186.302 98.028 186.302 99.1557V105.001C186.302 105.851 186.985 106.546 187.875 106.483C188.721 106.477 189.399 105.795 189.399 104.945V99.0438C189.399 95.841 186.818 93.2547 183.622 93.2547C182.63 93.2547 181.678 93.4989 180.863 93.9525C180.683 93.462 180.214 93.1148 179.659 93.1148H179.157ZM197.102 93.1148C193.377 93.1148 190.321 96.1478 190.321 99.9108C190.321 103.906 193.784 107.116 197.859 106.649L197.859 106.649C198.921 106.525 199.898 106.15 200.753 105.597L200.73 107.851L200.73 107.854C200.73 109.91 199.097 111.547 197.046 111.547C195.309 111.547 193.881 110.353 193.464 108.764C193.295 108.088 192.687 107.575 191.967 107.575C190.941 107.575 190.232 108.536 190.468 109.514L190.469 109.516C191.196 112.463 193.874 114.65 197.046 114.65C200.771 114.65 203.827 111.617 203.827 107.854V100.424C203.855 100.026 203.855 99.6278 203.827 99.2297V94.7364C203.827 93.8831 203.144 93.1987 202.293 93.1987C201.588 93.1987 200.999 93.6674 200.817 94.3126C200.422 94.0351 199.988 93.7684 199.609 93.6119C198.848 93.2893 197.974 93.1148 197.102 93.1148ZM174.078 93.1428C173.226 93.1428 172.544 93.8271 172.544 94.6805V105.001C172.544 105.855 173.226 106.539 174.078 106.539C174.929 106.539 175.612 105.855 175.612 105.001V94.6805C175.612 93.8271 174.929 93.1428 174.078 93.1428ZM136.598 93.1987C134.881 93.1987 133.192 93.8408 131.882 95.1243L131.88 95.1265C130.596 96.4137 129.957 98.1649 129.957 99.8549C129.957 101.573 130.568 103.268 131.88 104.583C133.164 105.87 134.883 106.511 136.598 106.511C137.764 106.511 138.957 106.19 140.004 105.578L140.007 105.576C140.855 105.066 141.029 103.873 140.311 103.154L140.308 103.15L140.304 103.147C139.805 102.68 139.046 102.56 138.449 103.01C137.888 103.364 137.248 103.52 136.598 103.52C136.156 103.52 135.738 103.458 135.351 103.317L140.953 97.7028C141.801 96.8528 141.671 95.4491 140.724 94.7621L140.724 94.7617C139.297 93.7325 137.874 93.1987 136.598 93.1987ZM134.008 97.2515C134.677 96.5553 135.607 96.1902 136.57 96.1902C136.954 96.1902 137.42 96.2781 137.827 96.4103L133.169 101.079C133.018 100.686 132.942 100.265 132.942 99.8269C132.942 98.8901 133.278 97.9834 134.004 97.2552L134.006 97.2534L134.008 97.2515ZM149.455 103.412C147.953 103.152 146.76 101.957 146.501 100.452C146.113 98.0877 148.057 96.0094 150.416 96.2171C152.154 96.3733 153.578 97.807 153.707 99.4847C153.889 101.884 151.837 103.827 149.455 103.412L149.455 103.412ZM193.416 100.249C193.209 97.9346 195.128 96.0369 197.411 96.245L197.412 96.245C199.146 96.4007 200.57 97.8007 200.73 99.5319V100.263C200.569 102.259 198.836 103.786 196.764 103.605C195.027 103.449 193.572 102.016 193.416 100.25L193.416 100.249Z" fill="white"/>
</svg>
