<svg width="231" height="144" viewBox="0 0 231 144" fill="none" xmlns="http://www.w3.org/2000/svg">
<path d="M84.8187 52.1539C83.7268 50.6803 82.6669 49.2387 81.6392 47.8291C80.7079 48.63 80.0013 49.6552 79.5517 50.8405L78.6204 53.4033C78.5883 53.4994 78.4919 53.5635 78.3956 53.5635C78.2992 53.5635 78.2029 53.4994 78.1708 53.4033L77.2394 50.8405C76.4686 48.7582 74.8307 47.1244 72.7753 46.3875L70.2061 45.4585C70.1097 45.4265 70.0455 45.3304 70.0455 45.2343C70.0455 45.1381 70.1097 45.042 70.2061 45.01L72.7753 44.081C74.4775 43.4403 75.8905 42.2229 76.7577 40.6532C60.5393 15.7935 58.1627 0 58.1627 0C58.1627 0 55.0154 20.7911 31.5068 52.1539C15.6417 73.3295 5.81434 99.1502 19.6883 121.511C20.5554 122.921 21.4867 124.266 22.4823 125.547C20.716 124.939 19.0138 124.202 17.376 123.369L16.4446 122.889L15.9629 122.664L15.5133 122.408L13.7469 121.351L12.0769 120.133C11.9484 120.037 11.7878 119.941 11.6594 119.813L11.274 119.493L10.5032 118.82C8.47994 117.026 6.77781 114.912 5.5253 112.509C4.2728 110.106 3.53414 107.447 3.2451 104.692C2.98817 101.937 3.14875 99.054 3.63048 96.2349C4.65818 90.5646 6.77781 85.0225 9.66821 79.8327C7.77339 82.1393 6.16761 84.6701 4.75453 87.329C3.37356 89.988 2.15317 92.7751 1.31816 95.7223C0.483156 98.6696 -0.0306929 101.745 0.00142264 104.885C0.00142264 108.024 0.643734 111.228 1.89624 114.207C3.14875 117.186 5.04357 119.877 7.29166 122.152L8.15878 122.985L8.6084 123.401C8.76898 123.529 8.92955 123.657 9.05802 123.786L10.9207 125.291L12.8798 126.637L13.3615 126.957L13.8754 127.245L14.9031 127.822C17.6329 129.392 20.5233 130.641 23.51 131.602C26.4968 132.563 29.612 133.204 32.7593 133.524C39.0219 134.165 45.4129 133.556 51.4506 131.73C52.1893 131.506 52.96 131.282 53.6987 130.994C54.4373 130.737 55.2081 130.481 55.8825 130.193C57.2956 129.616 58.7087 129.007 60.0897 128.367C62.8516 127.053 65.5493 125.612 68.1507 124.01C70.7521 122.44 73.2571 120.71 75.6657 118.82C78.0744 116.962 80.3546 114.976 82.5385 112.893L84.1443 111.324C84.6902 110.811 85.172 110.234 85.7179 109.69C86.7456 108.601 87.7412 107.447 88.7047 106.326L89.4433 105.461L90.1499 104.564C90.5995 103.955 91.0812 103.379 91.5308 102.77C91.9805 102.194 92.398 101.553 92.8476 100.944C93.233 100.368 93.6184 99.7909 94.0037 99.2142C93.6826 99.887 93.3935 100.432 93.0082 101.104C92.6228 101.777 92.2695 102.45 91.852 103.091C91.4345 103.731 91.017 104.372 90.5995 105.013C90.182 105.653 89.7324 106.262 89.2827 106.903C88.3835 108.152 87.4522 109.37 86.4566 110.523C85.9748 111.099 85.4931 111.708 84.9793 112.285C84.4654 112.861 83.9516 113.406 83.4377 113.983C82.9239 114.559 82.3779 115.104 81.8319 115.616C81.286 116.161 80.74 116.706 80.1619 117.218C79.0379 118.243 77.8817 119.301 76.6934 120.262C74.3169 122.248 71.8119 124.074 69.1784 125.74C66.5449 127.406 63.8151 128.943 60.9889 130.289C59.5758 130.962 58.1306 131.602 56.6854 132.179L56.1395 132.403L55.5614 132.627L54.4052 133.044C53.6344 133.332 52.8316 133.556 52.0608 133.781C45.8625 135.607 39.343 136.215 32.9199 135.575C53.1848 149.414 82.2494 144.737 96.6051 121.575C110.511 99.1502 100.684 73.3295 84.8187 52.1539Z" fill="url(#paint0_linear)"/>
<path d="M76.4687 30.7221L78.0745 31.2987C79.3591 31.7793 80.3868 32.7724 80.8685 34.0858L81.4466 35.6876C81.4787 35.7517 81.5108 35.7837 81.5751 35.7837C81.6393 35.7837 81.7035 35.7517 81.7035 35.6876L82.2816 34.0858C82.7633 32.8044 83.7589 31.7793 85.0757 31.2987L86.6814 30.7221C86.7457 30.69 86.7778 30.658 86.7778 30.5939C86.7778 30.5299 86.7457 30.4658 86.6814 30.4658L85.0757 29.8892C83.791 29.4086 82.7633 28.4155 82.2816 27.1021L81.7035 25.5003C81.6714 25.4362 81.6393 25.4042 81.5751 25.4042C81.5108 25.4042 81.4466 25.4362 81.4466 25.5003L80.8685 27.1021C80.3868 28.3835 79.3912 29.4086 78.0745 29.8892L76.4687 30.4658C76.4045 30.4978 76.3723 30.5299 76.3723 30.5939C76.3723 30.658 76.4045 30.7221 76.4687 30.7221Z" fill="url(#paint1_linear)"/>
<path d="M94.1643 36.5525C94.1643 36.5205 94.1322 36.5205 94.1001 36.5205C94.068 36.5205 94.0359 36.5525 94.0359 36.5525L93.7468 37.2894C93.522 37.898 93.0403 38.3786 92.4301 38.6028L91.6914 38.8911C91.6593 38.8911 91.6593 38.9232 91.6593 38.9552C91.6593 38.9872 91.6914 39.0193 91.6914 39.0193L92.4301 39.3076C93.0403 39.5319 93.522 40.0124 93.7468 40.6211L94.0359 41.3579C94.0359 41.3899 94.068 41.3899 94.1001 41.3899C94.1322 41.3899 94.1643 41.3579 94.1643 41.3579L94.4534 40.6211C94.6782 40.0124 95.1599 39.5319 95.7701 39.3076L96.5088 39.0193C96.5409 39.0193 96.5409 38.9872 96.5409 38.9552C96.5409 38.9232 96.5088 38.8911 96.5088 38.8911L95.7701 38.6028C95.1599 38.3786 94.6782 37.898 94.4534 37.2894L94.1643 36.5525Z" fill="url(#paint2_linear)"/>
<path d="M91.306 26.4614L91.8198 26.6536C92.2373 26.8138 92.5585 27.1341 92.6869 27.5186L92.8796 28.0311C92.8796 28.0632 92.9118 28.0632 92.9118 28.0632C92.9439 28.0632 92.9439 28.0632 92.9439 28.0311L93.1366 27.5186C93.2971 27.1021 93.6183 26.7817 94.0037 26.6536L94.5175 26.4614C94.5497 26.4614 94.5496 26.4293 94.5496 26.4293C94.5496 26.3973 94.5497 26.3973 94.5175 26.3973L94.0037 26.2051C93.5862 26.0449 93.265 25.7246 93.1366 25.3401L92.9439 24.8276C92.9439 24.7955 92.9118 24.7955 92.9118 24.7955C92.8796 24.7955 92.8796 24.7955 92.8796 24.8276L92.6869 25.3401C92.5264 25.7566 92.2052 26.077 91.8198 26.2051L91.306 26.3973C91.2739 26.3973 91.2739 26.4293 91.2739 26.4293C91.2739 26.4293 91.306 26.4614 91.306 26.4614Z" fill="url(#paint3_linear)"/>
<path d="M64.4574 117.475C65.9026 116.738 67.3478 115.969 68.7609 115.2V89.6676L73.3213 91.3655V79.4483L65.3566 74.5148V90.949L59.1904 93.2236V120.037C60.9568 119.236 62.7232 118.372 64.4574 117.475Z" fill="white"/>
<path d="M79.3269 108.953C80.194 108.376 81.0932 107.832 81.9603 107.255V100.816L78.3955 100.079V109.562C78.7167 109.337 79.0057 109.145 79.3269 108.953Z" fill="white"/>
<path d="M33.5302 125.836C36.6133 126.06 39.6964 125.932 42.7152 125.483V71.4393L33.1127 77.1096V125.804C33.2411 125.804 33.3696 125.804 33.5302 125.836Z" fill="white"/>
<path d="M52.3178 122.953C52.5426 122.889 52.7353 122.792 52.9601 122.696C53.8915 122.344 54.8228 121.96 55.7221 121.543V57.4398L46.1195 64.7439V73.4576L52.2857 77.1097V122.953H52.3178Z" fill="white"/>
<path fill-rule="evenodd" clip-rule="evenodd" d="M119.889 74.1304C119.889 71.023 122.201 68.5883 126.087 68.5883C127.404 68.5883 128.624 69.0368 129.588 69.9017C129.672 69.9687 129.746 70.0424 129.811 70.1212C129.932 70.2635 130.022 70.4262 130.076 70.6048C130.278 71.2267 130.057 71.9547 129.427 72.3364C129.17 72.4966 128.913 72.5607 128.624 72.5607C128.303 72.5607 127.982 72.4646 127.725 72.2403C127.275 71.8238 126.697 71.6316 126.087 71.6316C124.096 71.6316 122.908 72.7208 122.908 74.1624C122.908 75.9244 125.188 76.7573 127.115 77.366C130.583 78.5193 133.249 80.4094 133.249 83.9333C133.249 87.7455 130.358 90.6928 126.633 90.6928C124.289 90.6928 122.33 90.0201 120.917 88.7707C120.146 88.0979 120.274 86.8806 121.109 86.368H121.141C121.398 86.2078 121.655 86.1438 121.944 86.1438C122.298 86.1438 122.651 86.2399 122.908 86.4961C123.775 87.265 125.027 87.6815 126.601 87.6815C128.656 87.6815 130.23 86.0476 130.23 83.9333C130.23 82.0432 128.592 80.954 126.183 80.2172L126.025 80.1661C122.991 79.1902 119.889 78.1921 119.889 74.1304ZM135.722 77.1097C135.722 76.3088 136.364 75.6681 137.167 75.6681C137.97 75.6681 138.612 76.3088 138.612 77.0777V78.4552C139.865 76.7573 142.049 75.7001 144.2 75.7001C147.99 75.7001 151.073 78.9998 151.073 83.0683C151.073 87.1048 147.99 90.4045 144.2 90.4045C142.049 90.4045 139.865 89.3153 138.612 87.6494V94.9535C138.612 95.7544 137.97 96.3951 137.167 96.3951C136.364 96.3951 135.722 95.7544 135.722 94.9535V77.1097ZM143.686 87.5533H143.686C146.448 87.5533 148.6 85.1186 148.118 82.2674C147.797 80.4094 146.32 78.9357 144.457 78.6154C144.2 78.5833 143.943 78.5513 143.686 78.5513C141.085 78.5513 138.998 80.7938 139.222 83.4527C139.415 85.5991 141.149 87.3291 143.301 87.5213C143.43 87.5533 143.558 87.5533 143.686 87.5533ZM165.493 77.1097C165.493 76.3088 166.135 75.6681 166.938 75.6681C167.741 75.6681 168.415 76.3088 168.383 77.1417V88.9949C168.383 89.7958 167.741 90.4365 166.938 90.4365C166.135 90.4365 165.493 89.7958 165.493 88.9949V87.6814C164.24 89.3793 162.057 90.4365 159.905 90.4365C156.115 90.4365 153.032 87.1368 153.032 83.0683C153.032 79.0318 156.115 75.7322 159.905 75.7322C162.057 75.7322 164.24 76.8214 165.493 78.4872V77.1097ZM155.922 83.1004C155.922 85.5671 157.914 87.5853 160.419 87.5853C162.892 87.5853 164.915 85.5671 164.915 83.1004C164.915 80.6336 162.892 78.6154 160.419 78.6154C157.946 78.6154 155.922 80.6336 155.922 83.1004ZM172.944 77.9747C174.357 76.5331 176.252 75.8283 178.146 75.8283C179.495 75.8283 180.844 76.1807 182.032 76.9175C182.771 77.398 182.867 78.4232 182.257 79.0318C182 79.2881 181.647 79.4163 181.294 79.4163C181.037 79.4163 180.748 79.3522 180.523 79.192C179.816 78.7755 179.014 78.5513 178.179 78.5513C177.022 78.5513 175.834 78.9998 174.967 79.8968C174.068 80.7938 173.618 81.9471 173.618 83.1004C173.618 84.2857 174.068 85.439 174.967 86.368H174.935C175.802 87.265 176.958 87.6815 178.146 87.6815C178.981 87.6815 179.816 87.4572 180.555 87.0087C180.78 86.8806 181.005 86.8165 181.262 86.8165C181.615 86.8165 181.968 86.9446 182.225 87.2009C182.835 87.8096 182.739 88.8668 182 89.3153C180.812 90.0521 179.463 90.4045 178.146 90.4045C176.252 90.4045 174.389 89.7317 172.944 88.2901C171.563 86.8485 170.824 84.9905 170.824 83.1004C170.824 81.2743 171.531 79.4163 172.976 77.9747H172.944ZM187.428 77.8145C188.841 76.4369 190.704 75.7001 192.631 75.7001C194.044 75.7001 195.682 76.3408 197.319 77.4941C198.187 78.1348 198.283 79.3842 197.512 80.1531L190.639 87.0087C191.25 87.297 191.924 87.4572 192.631 87.4572C193.433 87.4572 194.236 87.2329 194.943 86.8165C195.168 86.6563 195.425 86.5922 195.682 86.5922C196.035 86.5922 196.388 86.7204 196.677 87.0087C197.352 87.6814 197.191 88.8027 196.388 89.2832C195.232 89.988 193.915 90.3083 192.631 90.3083C190.736 90.3083 188.873 89.6356 187.428 88.194C186.015 86.7844 185.308 84.8943 185.308 83.0042C185.308 81.1462 185.983 79.2561 187.428 77.8145ZM188.134 83.0363C188.134 83.7411 188.263 84.4138 188.584 85.0225L194.654 78.9998C194.076 78.7115 193.273 78.5513 192.631 78.5513C191.442 78.5513 190.286 78.9998 189.451 79.8647C188.552 80.7617 188.134 81.915 188.134 83.0363Z" fill="black"/>
<path fill-rule="evenodd" clip-rule="evenodd" d="M122.681 100.75C126.648 96.7932 132.893 96.3987 137.321 99.5627C138.253 100.222 138.369 101.543 137.554 102.356L137.551 102.359L137.547 102.362C136.883 102.985 135.88 103.016 135.156 102.521L135.152 102.519L135.149 102.517C132.036 100.273 127.597 100.673 124.946 103.655L124.945 103.656C122.267 106.634 122.449 111.311 125.286 114.141C127.967 116.816 132.158 117.093 135.148 114.942C135.882 114.403 136.894 114.476 137.522 115.102C138.344 115.922 138.179 117.239 137.293 117.892L137.291 117.893L137.289 117.895C132.861 121.059 126.68 120.665 122.713 116.707C118.285 112.29 118.285 105.169 122.68 100.751L122.681 100.75ZM142.37 97.6453C141.39 97.6453 140.604 98.4291 140.604 99.4065V117.955C140.604 118.933 141.39 119.716 142.37 119.716C143.35 119.716 144.135 118.933 144.135 117.955V99.4065C144.135 98.4291 143.35 97.6453 142.37 97.6453ZM196.677 98.8947C195.497 98.8947 194.558 99.8781 194.558 101.04C194.558 102.21 195.505 103.154 196.677 103.154C197.842 103.154 198.828 102.217 198.828 101.04C198.828 99.8707 197.85 98.8947 196.677 98.8947ZM175.674 104.405C174.694 104.405 173.908 105.189 173.908 106.166V106.653C172.562 105.289 170.59 104.437 168.64 104.437C164.653 104.437 161.447 107.901 161.447 112.093C161.447 116.316 164.653 119.78 168.64 119.78C170.587 119.78 172.56 118.954 173.908 117.574V118.019C173.908 118.992 174.691 119.784 175.68 119.748C176.657 119.745 177.439 118.962 177.439 117.987V106.166C177.439 105.189 176.654 104.405 175.674 104.405ZM181.23 104.405C180.41 104.405 179.753 105.06 179.753 105.878V117.987C179.753 118.965 180.539 119.748 181.519 119.748C182.498 119.748 183.284 118.965 183.284 117.987V111.067C183.284 109.145 185.251 107.653 187.27 108.266C188.57 108.67 189.452 109.947 189.452 111.324V118.019C189.452 118.997 190.273 119.788 191.262 119.716C192.236 119.71 193.015 118.928 193.015 117.955V111.196C193.015 107.527 190.046 104.565 186.368 104.565C185.226 104.565 184.13 104.845 183.193 105.364C182.985 104.802 182.446 104.405 181.808 104.405H181.23ZM202.586 104.405C201.767 104.405 201.11 105.06 201.11 105.878V117.987C201.11 118.965 201.896 119.748 202.875 119.748C203.855 119.748 204.641 118.965 204.641 117.987V111.067C204.641 109.087 206.785 107.537 208.86 108.353L208.861 108.354C210.042 108.814 210.809 110.032 210.809 111.324V118.019C210.809 118.993 211.594 119.788 212.619 119.716C213.593 119.71 214.372 118.928 214.372 117.955V111.196C214.372 107.527 211.402 104.565 207.725 104.565C206.583 104.565 205.487 104.845 204.55 105.364C204.342 104.802 203.803 104.405 203.165 104.405H202.586ZM223.237 104.405C218.95 104.405 215.433 107.879 215.433 112.189C215.433 116.765 219.418 120.441 224.108 119.906L224.109 119.906C225.331 119.765 226.454 119.335 227.438 118.701L227.413 121.284L227.413 121.287C227.413 123.641 225.533 125.516 223.173 125.516C221.174 125.516 219.53 124.148 219.051 122.329C218.856 121.555 218.157 120.967 217.328 120.967C216.147 120.967 215.332 122.067 215.603 123.188L215.603 123.19C216.441 126.566 219.522 129.071 223.173 129.071C227.459 129.071 230.976 125.597 230.976 121.287V112.777C231.008 112.321 231.008 111.865 230.976 111.409V106.262C230.976 105.285 230.19 104.501 229.21 104.501C228.399 104.501 227.721 105.038 227.512 105.777C227.058 105.459 226.558 105.153 226.122 104.974C225.246 104.605 224.241 104.405 223.237 104.405ZM196.741 104.437C195.762 104.437 194.976 105.221 194.976 106.198V118.019C194.976 118.997 195.762 119.78 196.741 119.78C197.721 119.78 198.507 118.997 198.507 118.019V106.198C198.507 105.221 197.721 104.437 196.741 104.437ZM153.61 104.501C151.635 104.501 149.691 105.236 148.184 106.706L148.181 106.709C146.703 108.183 145.967 110.189 145.967 112.125C145.967 114.092 146.67 116.034 148.181 117.54C149.659 119.014 151.637 119.748 153.61 119.748C154.952 119.748 156.325 119.381 157.529 118.68L157.533 118.678C158.509 118.093 158.71 116.727 157.883 115.903L157.879 115.899L157.875 115.895C157.301 115.36 156.427 115.223 155.74 115.738C155.095 116.144 154.358 116.322 153.61 116.322C153.102 116.322 152.621 116.252 152.176 116.09L158.622 109.66C159.598 108.686 159.448 107.078 158.359 106.292L158.358 106.291C156.717 105.112 155.079 104.501 153.61 104.501ZM150.629 109.143C151.399 108.345 152.47 107.927 153.578 107.927C154.02 107.927 154.556 108.028 155.025 108.179L149.664 113.527C149.49 113.077 149.402 112.595 149.402 112.093C149.402 111.02 149.789 109.981 150.625 109.147L150.627 109.145L150.629 109.143ZM168.406 116.199C166.677 115.901 165.305 114.532 165.006 112.808C164.56 110.101 166.797 107.72 169.511 107.958C171.512 108.137 173.151 109.779 173.299 111.701C173.508 114.448 171.147 116.674 168.406 116.199L168.406 116.199ZM218.996 112.577C218.757 109.925 220.965 107.752 223.593 107.99L223.594 107.99C225.589 108.168 227.228 109.772 227.413 111.755V112.593C227.227 114.879 225.233 116.627 222.848 116.419C220.849 116.241 219.174 114.599 218.996 112.577L218.996 112.577Z" fill="black"/>
<defs>
<linearGradient id="paint0_linear" x1="50.8242" y1="46.812" x2="52.3285" y2="146.21" gradientUnits="userSpaceOnUse">
<stop stop-color="#79CDE1"/>
<stop offset="0.0872112" stop-color="#75C5DD"/>
<stop offset="0.2168" stop-color="#6CB2D1"/>
<stop offset="0.3728" stop-color="#5E94C0"/>
<stop offset="0.5495" stop-color="#4A6CAA"/>
<stop offset="0.7433" stop-color="#333E90"/>
<stop offset="0.9486" stop-color="#190E76"/>
<stop offset="1" stop-color="#11006F"/>
</linearGradient>
<linearGradient id="paint1_linear" x1="76.3708" y1="30.589" x2="86.7695" y2="30.589" gradientUnits="userSpaceOnUse">
<stop stop-color="#79CDE1"/>
<stop offset="1" stop-color="#78C7DD"/>
</linearGradient>
<linearGradient id="paint2_linear" x1="91.6648" y1="38.9506" x2="96.561" y2="38.9506" gradientUnits="userSpaceOnUse">
<stop stop-color="#79CDE1"/>
<stop offset="1" stop-color="#78C7DD"/>
</linearGradient>
<linearGradient id="paint3_linear" x1="91.2861" y1="26.4154" x2="94.59" y2="26.4154" gradientUnits="userSpaceOnUse">
<stop stop-color="#79CDE1"/>
<stop offset="1" stop-color="#78C7DD"/>
</linearGradient>
</defs>
</svg>
