<svg width="28" height="52" viewBox="0 0 28 52" fill="none" xmlns="http://www.w3.org/2000/svg">
<circle cx="16" cy="48" r="4" fill="#1B1378"/>
<path d="M23.0004 14.1427C22.7043 13.7431 22.417 13.3522 22.1383 12.9699C21.8857 13.1871 21.6941 13.4651 21.5722 13.7865L21.3196 14.4815C21.3109 14.5075 21.2848 14.5249 21.2587 14.5249C21.2326 14.5249 21.2064 14.5075 21.1977 14.4815L20.9452 13.7865C20.7361 13.2218 20.292 12.7788 19.7346 12.579L19.0379 12.3271C19.0118 12.3184 18.9944 12.2923 18.9944 12.2663C18.9944 12.2402 19.0118 12.2141 19.0379 12.2055L19.7346 11.9535C20.1962 11.7798 20.5794 11.4497 20.8145 11.024C16.4166 4.28277 15.7721 0 15.7721 0C15.7721 0 14.9186 5.63796 8.54376 14.1427C4.24159 19.8849 1.57669 26.8867 5.33891 32.9504C5.57405 33.3326 5.8266 33.6975 6.09658 34.045C5.61759 33.8799 5.15602 33.6801 4.71187 33.4542L4.45931 33.3239L4.32868 33.2631L4.20676 33.1936L3.72777 32.9069L3.27491 32.5768C3.24008 32.5508 3.19653 32.5247 3.1617 32.49L3.05719 32.4031L2.84818 32.2207C2.29952 31.7342 1.83795 31.1608 1.49831 30.5093C1.15866 29.8577 0.958359 29.1367 0.879979 28.3896C0.810308 27.6425 0.853853 26.8607 0.984485 26.0962C1.26317 24.5586 1.83795 23.0557 2.62175 21.6484C2.10793 22.2739 1.67248 22.9601 1.28929 23.6812C0.914815 24.4022 0.583878 25.158 0.357448 25.9572C0.131018 26.7564 -0.00832307 27.5904 0.000385779 28.4417C0.000385779 29.2931 0.174563 30.1618 0.514208 30.9697C0.853853 31.7776 1.36767 32.5073 1.97729 33.1241L2.21243 33.35L2.33436 33.4629C2.3779 33.4977 2.42144 33.5324 2.45628 33.5672L2.96139 33.9755L3.49263 34.3403L3.62327 34.4272L3.76261 34.5054L4.04129 34.6617C4.78154 35.0874 5.56534 35.4262 6.37526 35.6868C7.18518 35.9474 8.02994 36.1212 8.88341 36.2081C10.5816 36.3818 12.3147 36.2167 13.952 35.7216C14.1523 35.6608 14.3613 35.6 14.5616 35.5218C14.7619 35.4523 14.9709 35.3828 15.1538 35.3046C15.537 35.1482 15.9202 34.9832 16.2946 34.8094C17.0436 34.4533 17.7751 34.0623 18.4806 33.628C19.186 33.2023 19.8653 32.7332 20.5184 32.2207C21.1716 31.7168 21.7899 31.1782 22.3821 30.6135L22.8176 30.1879C22.9656 30.0489 23.0962 29.8925 23.2443 29.7448C23.523 29.4495 23.793 29.1367 24.0542 28.8327L24.2545 28.5981L24.4461 28.3549C24.568 28.1898 24.6987 28.0334 24.8206 27.8684C24.9425 27.712 25.0557 27.5383 25.1777 27.3732C25.2822 27.2169 25.3867 27.0605 25.4912 26.9041C25.4041 27.0865 25.3257 27.2342 25.2212 27.4167C25.1167 27.5991 25.0209 27.7815 24.9077 27.9553C24.7945 28.129 24.6813 28.3027 24.568 28.4765C24.4548 28.6502 24.3329 28.8153 24.211 28.989C23.9671 29.3278 23.7146 29.6579 23.4446 29.9707C23.314 30.1271 23.1833 30.2921 23.044 30.4485C22.9046 30.6048 22.7653 30.7525 22.626 30.9089C22.4866 31.0653 22.3386 31.2129 22.1905 31.3519C22.0425 31.4996 21.8944 31.6473 21.7377 31.7863C21.4329 32.0643 21.1193 32.351 20.7971 32.6116C20.1527 33.1502 19.4734 33.6453 18.7592 34.0971C18.0451 34.5488 17.3049 34.9658 16.5385 35.3307C16.1553 35.5131 15.7634 35.6868 15.3715 35.8432L15.2234 35.904L15.0667 35.9648L14.7532 36.0778C14.5442 36.1559 14.3264 36.2167 14.1174 36.2776C12.4366 36.7727 10.6687 36.9378 8.92695 36.764C14.4222 40.5169 22.3037 39.2486 26.1966 32.9678C29.9675 26.8867 27.3026 19.8849 23.0004 14.1427Z" fill="url(#paint0_linear)"/>
<path d="M20.7362 8.33074L21.1716 8.48711C21.52 8.61742 21.7986 8.88672 21.9293 9.24289L22.086 9.67725C22.0948 9.69462 22.1035 9.70331 22.1209 9.70331C22.1383 9.70331 22.1557 9.69462 22.1557 9.67725L22.3125 9.24289C22.4431 8.8954 22.7131 8.61742 23.0701 8.48711L23.5056 8.33074C23.523 8.32205 23.5317 8.31337 23.5317 8.29599C23.5317 8.27862 23.523 8.26124 23.5056 8.26124L23.0701 8.10487C22.7218 7.97457 22.4431 7.70526 22.3125 7.34909L22.1557 6.91473C22.147 6.89736 22.1383 6.88867 22.1209 6.88867C22.1035 6.88867 22.086 6.89736 22.086 6.91473L21.9293 7.34909C21.7986 7.69658 21.5287 7.97457 21.1716 8.10487L20.7362 8.26124C20.7188 8.26993 20.71 8.27862 20.71 8.29599C20.71 8.31337 20.7188 8.33074 20.7362 8.33074Z" fill="url(#paint1_linear)"/>
<path d="M25.5347 9.91201C25.5347 9.90332 25.526 9.90332 25.5173 9.90332C25.5086 9.90332 25.4999 9.91201 25.4999 9.91201L25.4215 10.1118C25.3605 10.2769 25.2299 10.4072 25.0644 10.468L24.8641 10.5462C24.8554 10.5462 24.8554 10.5549 24.8554 10.5635C24.8554 10.5722 24.8641 10.5809 24.8641 10.5809L25.0644 10.6591C25.2299 10.7199 25.3605 10.8502 25.4215 11.0153L25.4999 11.2151C25.4999 11.2238 25.5086 11.2238 25.5173 11.2238C25.526 11.2238 25.5347 11.2151 25.5347 11.2151L25.6131 11.0153C25.6741 10.8502 25.8047 10.7199 25.9702 10.6591L26.1705 10.5809C26.1792 10.5809 26.1792 10.5722 26.1792 10.5635C26.1792 10.5549 26.1705 10.5462 26.1705 10.5462L25.9702 10.468C25.8047 10.4072 25.6741 10.2769 25.6131 10.1118L25.5347 9.91201Z" fill="url(#paint2_linear)"/>
<path d="M24.7596 7.17561L24.8989 7.22773C25.0122 7.27117 25.0993 7.35804 25.1341 7.46229L25.1863 7.60128C25.1863 7.60997 25.1951 7.60997 25.1951 7.60997C25.2038 7.60997 25.2038 7.60997 25.2038 7.60128L25.256 7.46229C25.2996 7.34935 25.3866 7.26248 25.4912 7.22773L25.6305 7.17561C25.6392 7.17561 25.6392 7.16692 25.6392 7.16692C25.6392 7.15823 25.6392 7.15824 25.6305 7.15824L25.4912 7.10611C25.3779 7.06268 25.2908 6.9758 25.256 6.87156L25.2038 6.73256C25.2038 6.72388 25.1951 6.72388 25.1951 6.72388C25.1863 6.72388 25.1863 6.72388 25.1863 6.73256L25.1341 6.87156C25.0905 6.98449 25.0035 7.07136 24.8989 7.10611L24.7596 7.15824C24.7509 7.15824 24.7509 7.16692 24.7509 7.16692C24.7509 7.16692 24.7596 7.17561 24.7596 7.17561Z" fill="url(#paint3_linear)"/>
<defs>
<linearGradient id="paint0_linear" x1="13.7821" y1="12.6941" x2="14.19" y2="39.6479" gradientUnits="userSpaceOnUse">
<stop stop-color="#79CDE1"/>
<stop offset="0.0872112" stop-color="#75C5DD"/>
<stop offset="0.2168" stop-color="#6CB2D1"/>
<stop offset="0.3728" stop-color="#5E94C0"/>
<stop offset="0.5495" stop-color="#4A6CAA"/>
<stop offset="0.7433" stop-color="#333E90"/>
<stop offset="0.9486" stop-color="#190E76"/>
<stop offset="1" stop-color="#11006F"/>
</linearGradient>
<linearGradient id="paint1_linear" x1="20.7096" y1="8.29464" x2="23.5295" y2="8.29464" gradientUnits="userSpaceOnUse">
<stop stop-color="#79CDE1"/>
<stop offset="1" stop-color="#78C7DD"/>
</linearGradient>
<linearGradient id="paint2_linear" x1="24.8569" y1="10.5623" x2="26.1846" y2="10.5623" gradientUnits="userSpaceOnUse">
<stop stop-color="#79CDE1"/>
<stop offset="1" stop-color="#78C7DD"/>
</linearGradient>
<linearGradient id="paint3_linear" x1="24.7542" y1="7.16313" x2="25.6501" y2="7.16313" gradientUnits="userSpaceOnUse">
<stop stop-color="#79CDE1"/>
<stop offset="1" stop-color="#78C7DD"/>
</linearGradient>
</defs>
</svg>
