<svg width="126" height="126" viewBox="0 0 126 126" fill="none" xmlns="http://www.w3.org/2000/svg">
<path d="M113.753 4.73388C106.834 1.68132 97.7163 0 88.079 0C78.4417 0 69.3239 1.68132 62.4049 4.73388C54.5257 8.21021 50.1863 13.199 50.1863 18.7812V50.5936C46.5326 49.4431 42.6465 48.8213 38.6179 48.8213C17.3396 48.8213 0.0285339 66.1323 0.0285339 87.4106C0.0285339 108.689 17.3396 126 38.6179 126C53.2566 126 66.0171 117.807 72.5556 105.765C77.3928 106.786 82.6972 107.322 88.079 107.322C97.7163 107.322 106.834 105.641 113.753 102.589C121.633 99.1122 125.972 94.1234 125.972 88.5412V18.7812C125.972 13.199 121.632 8.21021 113.753 4.73388ZM65.3851 11.4884C71.3857 8.84095 79.4453 7.38284 88.079 7.38284C96.7128 7.38284 104.772 8.84095 110.773 11.4884C115.594 13.6154 118.589 16.4101 118.589 18.7812C118.589 21.1523 115.594 23.9467 110.773 26.074C104.772 28.7215 96.7128 30.1796 88.079 30.1796C79.4453 30.1796 71.3857 28.7215 65.3851 26.074C60.5641 23.9467 57.5692 21.1526 57.5692 18.7812C57.5692 16.4098 60.5641 13.6154 65.3851 11.4884ZM38.6177 118.617C21.4102 118.617 7.41113 104.618 7.41113 87.4106C7.41113 70.2032 21.4102 56.2041 38.6177 56.2041C55.8249 56.2041 69.8242 70.2032 69.8242 87.4106C69.8242 104.618 55.8251 118.617 38.6177 118.617ZM110.773 95.8337C104.772 98.4812 96.7128 99.9393 88.079 99.9393C83.7214 99.9393 79.4394 99.5559 75.4849 98.8213C76.4412 95.738 77.0188 92.49 77.1669 89.1323C80.6725 89.6267 84.3238 89.8822 88.0793 89.8822C97.7166 89.8822 106.834 88.2008 113.753 85.1483C115.554 84.3536 117.168 83.4795 118.589 82.5379V88.5409C118.589 90.9123 115.594 93.7067 110.773 95.8337ZM110.773 78.3937C104.772 81.0412 96.7128 82.4993 88.079 82.4993C84.1506 82.4993 80.361 82.1954 76.7705 81.6045C76.2096 77.9035 75.1194 74.3743 73.5826 71.0943C78.1225 71.9763 83.0496 72.4422 88.079 72.4422C97.7163 72.4422 106.834 70.7611 113.753 67.7085C115.554 66.9139 117.167 66.0395 118.589 65.098V71.1009C118.589 73.4723 115.594 76.2667 110.773 78.3937ZM110.773 60.954C104.772 63.6015 96.7128 65.0596 88.079 65.0596C80.4459 65.0596 73.1598 63.896 67.4376 61.7789C64.6171 58.6111 61.2842 55.9098 57.5692 53.8064V47.6582C58.9906 48.5998 60.6043 49.4741 62.4049 50.2685C69.3239 53.3211 78.4417 55.0024 88.079 55.0024C97.7163 55.0024 106.834 53.3211 113.753 50.2685C115.554 49.4739 117.167 48.5998 118.589 47.6582V53.6612C118.589 56.0323 115.594 58.8267 110.773 60.954ZM110.773 43.5137C104.772 46.1612 96.7128 47.6193 88.079 47.6193C79.4453 47.6193 71.3857 46.1612 65.3851 43.5137C60.5641 41.3867 57.5692 38.5923 57.5692 36.221V30.218C58.9906 31.1595 60.6043 32.0339 62.4049 32.8285C69.3239 35.8811 78.4417 37.5622 88.079 37.5622C97.7163 37.5622 106.834 35.8811 113.753 32.8285C115.554 32.0339 117.167 31.1595 118.589 30.218V36.221C118.589 38.5923 115.594 41.3867 110.773 43.5137Z" fill="#384996"/>
<path d="M43.5469 83.4389H35.6288C33.8463 83.4389 32.3961 81.9886 32.3961 80.2062C32.3961 78.4237 33.8463 76.9735 35.6288 76.9735H48.9974V69.5907H42.3093V64.61H34.9265V69.6165C29.3997 69.9798 25.0133 74.5891 25.0133 80.2062C25.0133 86.0595 29.7755 90.8217 35.6288 90.8217H43.5469C45.4839 90.8217 47.0596 92.3977 47.0596 94.3347C47.0596 96.2717 45.4839 97.8474 43.5469 97.8474H26.4845V105.23H34.9265V110.211H42.3093V105.23H43.5469C49.5548 105.23 54.4424 100.343 54.4424 94.3347C54.4424 88.3268 49.5548 83.4389 43.5469 83.4389Z" fill="#79CDE1"/>
</svg>
