<svg width="87" height="120" viewBox="0 0 87 120" fill="none" xmlns="http://www.w3.org/2000/svg">
<path d="M22.5333 102.192C21.3706 102.192 20.3199 101.941 19.3813 101.44C18.4533 100.939 17.7226 100.251 17.1893 99.376C16.6666 98.4907 16.4053 97.4987 16.4053 96.4C16.4053 95.3013 16.6666 94.3147 17.1893 93.44C17.7226 92.5547 18.4533 91.8613 19.3813 91.36C20.3199 90.8587 21.3706 90.608 22.5333 90.608C23.6959 90.608 24.7413 90.8587 25.6693 91.36C26.5973 91.8613 27.3279 92.5547 27.8613 93.44C28.3946 94.3147 28.6613 95.3013 28.6613 96.4C28.6613 97.4987 28.3946 98.4907 27.8613 99.376C27.3279 100.251 26.5973 100.939 25.6693 101.44C24.7413 101.941 23.6959 102.192 22.5333 102.192ZM22.5333 99.984C23.1946 99.984 23.7919 99.8347 24.3253 99.536C24.8586 99.2267 25.2746 98.8 25.5733 98.256C25.8826 97.712 26.0373 97.0933 26.0373 96.4C26.0373 95.7067 25.8826 95.088 25.5733 94.544C25.2746 94 24.8586 93.5787 24.3253 93.28C23.7919 92.9707 23.1946 92.816 22.5333 92.816C21.8719 92.816 21.2746 92.9707 20.7413 93.28C20.2079 93.5787 19.7866 94 19.4773 94.544C19.1786 95.088 19.0293 95.7067 19.0293 96.4C19.0293 97.0933 19.1786 97.712 19.4773 98.256C19.7866 98.8 20.2079 99.2267 20.7413 99.536C21.2746 99.8347 21.8719 99.984 22.5333 99.984ZM35.6653 93.264C36.7319 93.264 37.5906 93.584 38.2413 94.224C38.9026 94.864 39.2333 95.8133 39.2333 97.072V102H36.7373V97.456C36.7373 96.7733 36.5879 96.2667 36.2893 95.936C35.9906 95.5947 35.5586 95.424 34.9933 95.424C34.3639 95.424 33.8626 95.6213 33.4893 96.016C33.1159 96.4 32.9293 96.976 32.9293 97.744V102H30.4333V93.392H32.8173V94.4C33.1479 94.0373 33.5586 93.76 34.0493 93.568C34.5399 93.3653 35.0786 93.264 35.6653 93.264ZM41.4958 90.128H43.9918V102H41.4958V90.128ZM46.3083 93.392H48.8043V102H46.3083V93.392ZM47.5563 92.192C47.0976 92.192 46.7243 92.0587 46.4363 91.792C46.1483 91.5253 46.0043 91.1947 46.0043 90.8C46.0043 90.4053 46.1483 90.0747 46.4363 89.808C46.7243 89.5413 47.0976 89.408 47.5563 89.408C48.0149 89.408 48.3883 89.536 48.6763 89.792C48.9643 90.048 49.1083 90.368 49.1083 90.752C49.1083 91.168 48.9643 91.5147 48.6763 91.792C48.3883 92.0587 48.0149 92.192 47.5563 92.192ZM56.3528 93.264C57.4194 93.264 58.2781 93.584 58.9288 94.224C59.5901 94.864 59.9208 95.8133 59.9208 97.072V102H57.4248V97.456C57.4248 96.7733 57.2754 96.2667 56.9768 95.936C56.6781 95.5947 56.2461 95.424 55.6808 95.424C55.0514 95.424 54.5501 95.6213 54.1768 96.016C53.8034 96.4 53.6168 96.976 53.6168 97.744V102H51.1208V93.392H53.5048V94.4C53.8354 94.0373 54.2461 93.76 54.7368 93.568C55.2274 93.3653 55.7661 93.264 56.3528 93.264ZM70.709 97.728C70.709 97.76 70.693 97.984 70.661 98.4H64.149C64.2663 98.9333 64.5437 99.3547 64.981 99.664C65.4183 99.9733 65.9623 100.128 66.613 100.128C67.061 100.128 67.4557 100.064 67.797 99.936C68.149 99.7973 68.4743 99.584 68.773 99.296L70.101 100.736C69.2903 101.664 68.1063 102.128 66.549 102.128C65.5783 102.128 64.7197 101.941 63.973 101.568C63.2263 101.184 62.6503 100.656 62.245 99.984C61.8397 99.312 61.637 98.5493 61.637 97.696C61.637 96.8533 61.8343 96.096 62.229 95.424C62.6343 94.7413 63.1837 94.2133 63.877 93.84C64.581 93.456 65.365 93.264 66.229 93.264C67.0717 93.264 67.8343 93.4453 68.517 93.808C69.1997 94.1707 69.733 94.6933 70.117 95.376C70.5117 96.048 70.709 96.832 70.709 97.728ZM66.245 95.152C65.6797 95.152 65.205 95.312 64.821 95.632C64.437 95.952 64.2023 96.3893 64.117 96.944H68.357C68.2717 96.4 68.037 95.968 67.653 95.648C67.269 95.3173 66.7997 95.152 66.245 95.152ZM13.2096 114.888V119.32H10.8096V117H2.90563V119.32H0.505625L0.521625 114.888H0.969625C1.64163 114.867 2.11629 114.376 2.39363 113.416C2.67096 112.456 2.84163 111.085 2.90563 109.304L3.03363 105.8H11.6416V114.888H13.2096ZM5.19363 109.544C5.14029 110.877 5.02829 111.997 4.85763 112.904C4.68696 113.8 4.42563 114.461 4.07363 114.888H9.08162V107.912H5.24163L5.19363 109.544ZM18.6851 117.128C17.7785 117.128 16.9625 116.941 16.2371 116.568C15.5225 116.184 14.9625 115.656 14.5571 114.984C14.1518 114.312 13.9491 113.549 13.9491 112.696C13.9491 111.843 14.1518 111.08 14.5571 110.408C14.9625 109.736 15.5225 109.213 16.2371 108.84C16.9625 108.456 17.7785 108.264 18.6851 108.264C19.5918 108.264 20.4025 108.456 21.1171 108.84C21.8318 109.213 22.3918 109.736 22.7971 110.408C23.2025 111.08 23.4051 111.843 23.4051 112.696C23.4051 113.549 23.2025 114.312 22.7971 114.984C22.3918 115.656 21.8318 116.184 21.1171 116.568C20.4025 116.941 19.5918 117.128 18.6851 117.128ZM18.6851 115.08C19.3251 115.08 19.8478 114.867 20.2531 114.44C20.6691 114.003 20.8771 113.421 20.8771 112.696C20.8771 111.971 20.6691 111.395 20.2531 110.968C19.8478 110.531 19.3251 110.312 18.6851 110.312C18.0451 110.312 17.5171 110.531 17.1011 110.968C16.6851 111.395 16.4771 111.971 16.4771 112.696C16.4771 113.421 16.6851 114.003 17.1011 114.44C17.5171 114.867 18.0451 115.08 18.6851 115.08ZM33.6819 108.392V117H31.1859V110.44H27.6019V117H25.1219V108.392H33.6819ZM40.107 117.128C39.2003 117.128 38.3843 116.941 37.659 116.568C36.9443 116.184 36.3843 115.656 35.979 114.984C35.5737 114.312 35.371 113.549 35.371 112.696C35.371 111.843 35.5737 111.08 35.979 110.408C36.3843 109.736 36.9443 109.213 37.659 108.84C38.3843 108.456 39.2003 108.264 40.107 108.264C41.0137 108.264 41.8243 108.456 42.539 108.84C43.2537 109.213 43.8137 109.736 44.219 110.408C44.6243 111.08 44.827 111.843 44.827 112.696C44.827 113.549 44.6243 114.312 44.219 114.984C43.8137 115.656 43.2537 116.184 42.539 116.568C41.8243 116.941 41.0137 117.128 40.107 117.128ZM40.107 115.08C40.747 115.08 41.2697 114.867 41.675 114.44C42.091 114.003 42.299 113.421 42.299 112.696C42.299 111.971 42.091 111.395 41.675 110.968C41.2697 110.531 40.747 110.312 40.107 110.312C39.467 110.312 38.939 110.531 38.523 110.968C38.107 111.395 37.899 111.971 37.899 112.696C37.899 113.421 38.107 114.003 38.523 114.44C38.939 114.867 39.467 115.08 40.107 115.08ZM54.9438 117V111.848L52.3678 116.168H51.3118L48.7998 111.832V117H46.5438V108.392H49.1518L51.9038 113.368L54.8318 108.392H57.1678L57.1998 117H54.9438ZM63.6226 117.128C62.716 117.128 61.9 116.941 61.1746 116.568C60.46 116.184 59.9 115.656 59.4946 114.984C59.0893 114.312 58.8866 113.549 58.8866 112.696C58.8866 111.843 59.0893 111.08 59.4946 110.408C59.9 109.736 60.46 109.213 61.1746 108.84C61.9 108.456 62.716 108.264 63.6226 108.264C64.5293 108.264 65.34 108.456 66.0546 108.84C66.7693 109.213 67.3293 109.736 67.7346 110.408C68.14 111.08 68.3426 111.843 68.3426 112.696C68.3426 113.549 68.14 114.312 67.7346 114.984C67.3293 115.656 66.7693 116.184 66.0546 116.568C65.34 116.941 64.5293 117.128 63.6226 117.128ZM63.6226 115.08C64.2626 115.08 64.7853 114.867 65.1906 114.44C65.6066 114.003 65.8146 113.421 65.8146 112.696C65.8146 111.971 65.6066 111.395 65.1906 110.968C64.7853 110.531 64.2626 110.312 63.6226 110.312C62.9826 110.312 62.4546 110.531 62.0386 110.968C61.6226 111.395 61.4146 111.971 61.4146 112.696C61.4146 113.421 61.6226 114.003 62.0386 114.44C62.4546 114.867 62.9826 115.08 63.6226 115.08ZM76.9554 110.44H72.5394V117H70.0594V108.392H76.9554V110.44ZM81.6221 108.264C82.9555 108.264 83.9795 108.584 84.6941 109.224C85.4088 109.853 85.7661 110.808 85.7661 112.088V117H83.4301V115.928C82.9608 116.728 82.0861 117.128 80.8061 117.128C80.1448 117.128 79.5688 117.016 79.0781 116.792C78.5981 116.568 78.2301 116.259 77.9741 115.864C77.7181 115.469 77.5901 115.021 77.5901 114.52C77.5901 113.72 77.8888 113.091 78.4861 112.632C79.0941 112.173 80.0275 111.944 81.2861 111.944H83.2701C83.2701 111.4 83.1048 110.984 82.7741 110.696C82.4435 110.397 81.9475 110.248 81.2861 110.248C80.8275 110.248 80.3741 110.323 79.9261 110.472C79.4888 110.611 79.1155 110.803 78.8061 111.048L77.9101 109.304C78.3795 108.973 78.9395 108.717 79.5901 108.536C80.2515 108.355 80.9288 108.264 81.6221 108.264ZM81.4301 115.448C81.8568 115.448 82.2355 115.352 82.5661 115.16C82.8968 114.957 83.1315 114.664 83.2701 114.28V113.4H81.5581C80.5341 113.4 80.0221 113.736 80.0221 114.408C80.0221 114.728 80.1448 114.984 80.3901 115.176C80.6461 115.357 80.9928 115.448 81.4301 115.448Z" fill="#384996"/>
<path d="M60.7962 28.1221C60.1445 27.3275 59.5121 26.5502 58.8988 25.7901C58.343 26.2219 57.9213 26.7747 57.653 27.4139L57.0972 28.7958C57.078 28.8476 57.0205 28.8821 56.9631 28.8821C56.9056 28.8821 56.8481 28.8476 56.8289 28.7958L56.2731 27.4139C55.8131 26.291 54.8357 25.4101 53.6091 25.0128L52.0759 24.5118C52.0184 24.4945 51.98 24.4427 51.98 24.3909C51.98 24.3391 52.0184 24.2873 52.0759 24.27L53.6091 23.769C54.6249 23.4236 55.4681 22.7671 55.9856 21.9207C46.307 8.51609 44.8888 0 44.8888 0C44.8888 0 43.0106 11.2108 28.9814 28.1221C19.5137 39.5402 13.6491 53.4631 21.9286 65.5203C22.446 66.2804 23.0018 67.0059 23.5959 67.6968C22.5418 67.3686 21.5261 66.9713 20.5486 66.5222L19.9928 66.2631L19.7054 66.1422L19.437 66.004L18.3829 65.4339L17.3863 64.7775C17.3097 64.7257 17.2138 64.6739 17.1372 64.6048L16.9072 64.4321L16.4472 64.0693C15.2398 63.102 14.224 61.9619 13.4766 60.6663C12.7291 59.3708 12.2883 57.937 12.1158 56.4515C11.9625 54.9659 12.0583 53.4112 12.3458 51.8911C12.9591 48.8336 14.224 45.8452 15.9489 43.0468C14.8182 44.2906 13.8599 45.6552 13.0166 47.0889C12.1925 48.5227 11.4642 50.0255 10.9659 51.6147C10.4676 53.2039 10.1609 54.8623 10.1801 56.5551C10.1801 58.248 10.5634 59.9754 11.3109 61.5818C12.0583 63.1883 13.1891 64.6393 14.5307 65.8658L15.0481 66.3149L15.3165 66.5395C15.4123 66.6086 15.5081 66.6777 15.5848 66.7468L16.6964 67.5586L17.8655 68.2842L18.153 68.4569L18.4596 68.6124L19.0729 68.9233C20.702 69.7697 22.4269 70.4434 24.2092 70.9616C25.9916 71.4798 27.8507 71.8253 29.7289 71.9981C33.4662 72.3435 37.2801 72.0153 40.8832 71.0307C41.324 70.9098 41.784 70.7889 42.2248 70.6334C42.6656 70.4952 43.1256 70.357 43.528 70.2016C44.3713 69.8906 45.2146 69.5624 46.0387 69.217C47.687 68.5087 49.2969 67.7314 50.8493 66.8677C52.4017 66.0213 53.8966 65.0885 55.334 64.0693C56.7714 63.0674 58.1321 61.9964 59.4354 60.8736L60.3937 60.0272C60.7195 59.7508 61.007 59.4399 61.3328 59.1462C61.9461 58.5589 62.5402 57.937 63.1152 57.3324L63.556 56.866L63.9776 56.3824C64.2459 56.0542 64.5334 55.7432 64.8017 55.415C65.0701 55.1041 65.3192 54.7586 65.5875 54.4304C65.8175 54.1195 66.0475 53.8085 66.2775 53.4976C66.0858 53.8604 65.9133 54.154 65.6833 54.5168C65.4534 54.8795 65.2425 55.2423 64.9934 55.5878C64.7442 55.9332 64.4951 56.2787 64.2459 56.6242C63.9968 56.9697 63.7285 57.2979 63.4602 57.6434C62.9235 58.3171 62.3677 58.9735 61.7736 59.5953C61.4861 59.9063 61.1986 60.2345 60.892 60.5454C60.5853 60.8563 60.2787 61.15 59.972 61.4609C59.6654 61.7719 59.3396 62.0655 59.0138 62.3419C58.6879 62.6356 58.3621 62.9292 58.0172 63.2056C57.3464 63.7584 56.6564 64.3284 55.9473 64.8466C54.529 65.9176 53.0341 66.9022 51.4626 67.8005C49.891 68.6987 48.2619 69.5279 46.5754 70.2534C45.7321 70.6161 44.8696 70.9616 44.0072 71.2726L43.6814 71.3935L43.3364 71.5144L42.6464 71.739C42.1865 71.8944 41.7073 72.0153 41.2474 72.1363C37.5484 73.1209 33.6578 73.4491 29.8247 73.1036C41.9181 80.566 59.2629 78.044 67.8299 65.5549C76.1285 53.4631 70.2639 39.5402 60.7962 28.1221Z" fill="url(#paint0_linear)"/>
<path fill-rule="evenodd" clip-rule="evenodd" d="M43.3367 35.7221C36.9978 35.7221 31.8591 40.3652 31.8591 46.0927C31.8591 51.8203 36.9978 56.4634 43.3367 56.4634C49.6755 56.4634 54.8142 51.8203 54.8142 46.0927C54.8142 40.3652 49.6755 35.7221 43.3367 35.7221ZM29.3085 46.0927C29.3085 39.0924 35.5891 33.4175 43.3367 33.4175C51.0842 33.4175 57.3648 39.0924 57.3648 46.0927C57.3648 53.0931 51.0842 58.768 43.3367 58.768C35.5891 58.768 29.3085 53.0931 29.3085 46.0927Z" fill="white"/>
<path fill-rule="evenodd" clip-rule="evenodd" d="M43.6659 41.5106C43.0722 41.4186 42.4616 41.5194 41.9423 41.7952C41.423 42.0709 41.0285 42.5039 40.8286 43.0173C40.5949 43.6176 39.8668 43.9331 39.2024 43.7219C38.538 43.5107 38.1889 42.8528 38.4226 42.2525C38.8224 41.2257 39.6114 40.3598 40.65 39.8083C41.6886 39.2568 42.9097 39.0552 44.0971 39.2392C45.2844 39.4232 46.3613 39.981 47.1372 40.8137C47.9128 41.6463 48.3374 42.7 48.3358 43.7882C48.3352 45.5517 46.8883 46.7162 45.855 47.3386C45.2994 47.6733 44.753 47.9193 44.3504 48.081C44.1473 48.1626 43.9763 48.2244 43.853 48.2669C43.7913 48.2881 43.7413 48.3046 43.7049 48.3163L43.6606 48.3303L43.6465 48.3346L43.6415 48.3362L43.6395 48.3367C43.6392 48.3369 43.6379 48.3372 43.2347 47.2441L43.6379 48.3372C42.9698 48.5385 42.2475 48.2122 42.0248 47.6085C41.8022 47.0051 42.1627 46.353 42.83 46.1513L42.8284 46.1518C42.8285 46.1518 42.8287 46.1517 42.83 46.1513L42.8504 46.1449C42.87 46.1386 42.9022 46.128 42.9451 46.1133C43.0311 46.0837 43.1589 46.0375 43.3145 45.975C43.6293 45.8486 44.0393 45.6626 44.4402 45.4211C45.3196 44.8913 45.7852 44.3278 45.7852 43.7872L45.7852 43.7855C45.7861 43.2412 45.5738 42.7142 45.1859 42.2979C44.798 41.8815 44.2595 41.6026 43.6659 41.5106Z" fill="white"/>
<path fill-rule="evenodd" clip-rule="evenodd" d="M42.0614 51.8533C42.0614 51.2169 42.6324 50.701 43.3367 50.701H43.3494C44.0538 50.701 44.6247 51.2169 44.6247 51.8533C44.6247 52.4897 44.0538 53.0056 43.3494 53.0056H43.3367C42.6324 53.0056 42.0614 52.4897 42.0614 51.8533Z" fill="white"/>
<defs>
<linearGradient id="paint0_linear" x1="40.5094" y1="25.2417" x2="41.2423" y2="78.8404" gradientUnits="userSpaceOnUse">
<stop stop-color="#79CDE1"/>
<stop offset="0.0872112" stop-color="#75C5DD"/>
<stop offset="0.2168" stop-color="#6CB2D1"/>
<stop offset="0.3728" stop-color="#5E94C0"/>
<stop offset="0.5495" stop-color="#4A6CAA"/>
<stop offset="0.7433" stop-color="#333E90"/>
<stop offset="0.9486" stop-color="#190E76"/>
<stop offset="1" stop-color="#11006F"/>
</linearGradient>
</defs>
</svg>
