<svg width="18" height="18" viewBox="0 0 18 18" fill="none" xmlns="http://www.w3.org/2000/svg">
<path d="M0.166668 9.22222L2.94445 10.2222C5.16667 11.0556 6.94444 12.7778 7.77778 15.0556L8.77778 17.8333C8.83333 17.9444 8.88888 18 9 18C9.11111 18 9.22222 17.9444 9.22222 17.8333L10.2222 15.0556C11.0556 12.8333 12.7778 11.0556 15.0555 10.2222L17.8333 9.22222C17.9444 9.16667 18 9.11111 18 9C18 8.88889 17.9444 8.77778 17.8333 8.77778L15.0555 7.77778C12.8333 6.94445 11.0556 5.22222 10.2222 2.94444L9.22222 0.166664C9.16667 0.055553 9.11111 0 9 0C8.88888 0 8.77778 0.055553 8.77778 0.166664L7.77778 2.94444C6.94444 5.16667 5.22222 6.94445 2.94445 7.77778L0.166668 8.77778C0.0555572 8.83333 0 8.88889 0 9C0 9.11111 0.0555572 9.22222 0.166668 9.22222Z" fill="#384996" fill-opacity="0.1"/>
</svg>
