<svg width="26" height="26" viewBox="0 0 26 26" fill="none" xmlns="http://www.w3.org/2000/svg">
<path d="M0.240743 13.321L4.25309 14.7654C7.46296 15.9691 10.0309 18.4568 11.2346 21.7469L12.679 25.7593C12.7593 25.9198 12.8395 26 13 26C13.1605 26 13.321 25.9198 13.321 25.7593L14.7654 21.7469C15.9691 18.537 18.4568 15.9691 21.7469 14.7654L25.7592 13.321C25.9197 13.2407 26 13.1605 26 13C26 12.8395 25.9197 12.679 25.7592 12.679L21.7469 11.2346C18.537 10.0309 15.9691 7.54321 14.7654 4.25308L13.321 0.240737C13.2407 0.0802433 13.1605 0 13 0C12.8395 0 12.679 0.0802433 12.679 0.240737L11.2346 4.25308C10.0309 7.46296 7.54321 10.0309 4.25309 11.2346L0.240743 12.679C0.0802493 12.7593 0 12.8395 0 13C0 13.1605 0.0802493 13.321 0.240743 13.321Z" fill="#384996" fill-opacity="0.1"/>
</svg>
