<svg width="24" height="24" viewBox="0 0 24 24" fill="none" xmlns="http://www.w3.org/2000/svg">
<path d="M0.222224 12.2963L3.92593 13.6296C6.88889 14.7407 9.25926 17.037 10.3704 20.0741L11.7037 23.7778C11.7778 23.9259 11.8518 24 12 24C12.1481 24 12.2963 23.9259 12.2963 23.7778L13.6296 20.0741C14.7407 17.1111 17.037 14.7407 20.0741 13.6296L23.7778 12.2963C23.9259 12.2222 24 12.1481 24 12C24 11.8519 23.9259 11.7037 23.7778 11.7037L20.0741 10.3704C17.1111 9.25926 14.7407 6.96296 13.6296 3.92592L12.2963 0.222219C12.2222 0.0740707 12.1481 0 12 0C11.8518 0 11.7037 0.0740707 11.7037 0.222219L10.3704 3.92592C9.25926 6.88889 6.96296 9.25926 3.92593 10.3704L0.222224 11.7037C0.0740763 11.7778 0 11.8519 0 12C0 12.1481 0.0740763 12.2963 0.222224 12.2963Z" fill="#384996" fill-opacity="0.1"/>
</svg>
