<svg width="16" height="16" viewBox="0 0 16 16" fill="none" xmlns="http://www.w3.org/2000/svg">
<path d="M0.14815 8.19753L2.61728 9.08642C4.59259 9.82716 6.17284 11.358 6.91358 13.3827L7.80247 15.8519C7.85185 15.9506 7.90123 16 8 16C8.09876 16 8.19753 15.9506 8.19753 15.8519L9.08642 13.3827C9.82716 11.4074 11.358 9.82716 13.3827 9.08642L15.8518 8.19753C15.9506 8.14815 16 8.09877 16 8C16 7.90123 15.9506 7.80247 15.8518 7.80247L13.3827 6.91358C11.4074 6.17284 9.82716 4.64197 9.08642 2.61728L8.19753 0.148146C8.14815 0.0493805 8.09876 0 8 0C7.90123 0 7.80247 0.0493805 7.80247 0.148146L6.91358 2.61728C6.17284 4.59259 4.64198 6.17284 2.61728 6.91358L0.14815 7.80247C0.0493842 7.85185 0 7.90123 0 8C0 8.09877 0.0493842 8.19753 0.14815 8.19753Z" fill="#384996" fill-opacity="0.1"/>
</svg>
