<svg width="54" height="54" viewBox="0 0 54 54" fill="none" xmlns="http://www.w3.org/2000/svg">
<path d="M0.500005 27.6667L8.83334 30.6667C15.5 33.1667 20.8333 38.3333 23.3333 45.1667L26.3333 53.5C26.5 53.8333 26.6667 54 27 54C27.3333 54 27.6667 53.8333 27.6667 53.5L30.6667 45.1667C33.1667 38.5 38.3333 33.1667 45.1666 30.6667L53.5 27.6667C53.8333 27.5 54 27.3333 54 27C54 26.6667 53.8333 26.3333 53.5 26.3333L45.1666 23.3333C38.5 20.8333 33.1667 15.6667 30.6667 8.83333L27.6667 0.499992C27.5 0.166659 27.3333 0 27 0C26.6667 0 26.3333 0.166659 26.3333 0.499992L23.3333 8.83333C20.8333 15.5 15.6667 20.8333 8.83334 23.3333L0.500005 26.3333C0.166672 26.5 0 26.6667 0 27C0 27.3333 0.166672 27.6667 0.500005 27.6667Z" fill="#384996" fill-opacity="0.1"/>
</svg>
